# Blender 3.6.1
# www.blender.org
mtllib lamps_hanging_candle_lamp.mtl
o SimpleLamp_Cube.004
v 0.187500 0.062487 -0.187500
v 0.187500 -0.437512 -0.187500
v 0.187500 0.062488 0.187500
v 0.187500 -0.437512 0.187500
v -0.187500 0.062487 -0.187500
v -0.187500 -0.437512 -0.187500
v -0.187500 0.062488 0.187500
v -0.187500 -0.437512 0.187500
v 0.062500 0.249987 -0.062500
v 0.062500 0.187487 -0.062500
v 0.062500 0.249987 0.062500
v 0.062500 0.187487 0.062500
v -0.062500 0.249987 -0.062500
v -0.062500 0.187487 -0.062500
v -0.062500 0.249987 0.062500
v -0.062500 0.187487 0.062500
v 0.250000 -0.437513 -0.250000
v 0.250000 -0.500013 -0.250000
v 0.250000 -0.437512 0.250000
v 0.250000 -0.500013 0.250000
v -0.250000 -0.437513 -0.250000
v -0.250000 -0.500013 -0.250000
v -0.250000 -0.437512 0.250000
v -0.250000 -0.500013 0.250000
v 0.250000 0.124987 -0.250000
v 0.250000 0.062487 -0.250000
v 0.250000 0.124988 0.250000
v 0.250000 0.062488 0.250000
v -0.250000 0.124987 -0.250000
v -0.250000 0.062487 -0.250000
v -0.250000 0.124988 0.250000
v -0.250000 0.062488 0.250000
v 0.187500 0.187487 -0.187500
v 0.187500 0.124987 -0.187500
v 0.187500 0.187488 0.187500
v 0.187500 0.124988 0.187500
v -0.187500 0.187487 -0.187500
v -0.187500 0.124987 -0.187500
v -0.187500 0.187488 0.187500
v -0.187500 0.124988 0.187500
v 0.044087 -0.497744 -0.044087
v -0.044087 -0.497744 0.044088
v -0.044087 0.500413 0.044087
v 0.044087 0.500413 -0.044088
v -0.044087 -0.497744 -0.044087
v -0.044087 0.500413 -0.044088
v 0.044087 0.500413 0.044087
v 0.044087 -0.497744 0.044088
vn -0.0000 1.0000 -0.0000
vn -0.0000 -1.0000 -0.0000
vn -0.0000 -0.0000 1.0000
vn -1.0000 -0.0000 -0.0000
vn 1.0000 -0.0000 -0.0000
vn -0.0000 -0.0000 -1.0000
vn -0.7071 -0.0000 -0.7071
vn 0.7071 -0.0000 -0.7071
vt 0.562500 0.562500
vt 0.437500 0.562500
vt 0.437500 0.437500
vt 0.562500 0.437500
vt 0.750000 0.750000
vt 0.250000 0.750000
vt 0.250000 0.250000
vt 0.750000 0.250000
vt 0.687500 0.687500
vt 0.312500 0.687500
vt 0.312500 0.312500
vt 0.687500 0.312500
vt 0.687500 0.062500
vt 0.687500 0.562500
vt 0.312500 0.562500
vt 0.312500 0.062500
vt 0.562500 0.687500
vt 0.562500 0.750000
vt 0.437500 0.750000
vt 0.437500 0.687500
vt 0.750000 0.000000
vt 0.750000 0.062500
vt 0.250000 0.062500
vt 0.250000 0.000000
vt 0.750000 0.562500
vt 0.750000 0.625000
vt 0.250000 0.625000
vt 0.250000 0.562500
vt 0.687500 0.625000
vt 0.312500 0.625000
vt 1.000000 1.000000
vt 1.000000 0.500000
vt -0.000000 0.500000
vt -0.000000 1.000000
vt 1.000000 0.000000
vt 0.000000 0.000000
g SimpleLamp_Cube.004_top
usemtl top
f 9/1/1 13/2/1 15/3/1 11/4/1
f 17/5/1 21/6/1 23/7/1 19/8/1
f 22/6/2 18/5/2 20/8/2 24/7/2
f 25/5/1 29/6/1 31/7/1 27/8/1
f 30/6/2 26/5/2 28/8/2 32/7/2
f 33/9/1 37/10/1 39/11/1 35/12/1
g SimpleLamp_Cube.004_side
usemtl side
f 4/13/3 3/14/3 7/15/3 8/16/3
f 8/16/4 7/15/4 5/14/4 6/13/4
f 2/13/5 1/14/5 3/15/5 4/16/5
f 6/16/6 5/15/6 1/14/6 2/13/6
f 12/17/3 11/18/3 15/19/3 16/20/3
f 16/20/4 15/19/4 13/18/4 14/17/4
f 10/17/5 9/18/5 11/19/5 12/20/5
f 14/20/6 13/19/6 9/18/6 10/17/6
f 20/21/3 19/22/3 23/23/3 24/24/3
f 24/24/4 23/23/4 21/22/4 22/21/4
f 18/21/5 17/22/5 19/23/5 20/24/5
f 22/24/6 21/23/6 17/22/6 18/21/6
f 28/25/3 27/26/3 31/27/3 32/28/3
f 32/28/4 31/27/4 29/26/4 30/25/4
f 26/25/5 25/26/5 27/27/5 28/28/5
f 30/28/6 29/27/6 25/26/6 26/25/6
f 36/29/3 35/9/3 39/10/3 40/30/3
f 40/30/4 39/10/4 37/9/4 38/29/4
f 34/29/5 33/9/5 35/10/5 36/30/5
f 38/30/6 37/10/6 33/9/6 34/29/6
g SimpleLamp_Cube.004_Material
usemtl Material
s 1
f 41/31/7 42/32/7 43/33/7 44/34/7
f 45/35/8 46/36/8 47/33/8 48/32/8
