# Blender v2.91.0 OBJ File: 'chandelier.blend'
# www.blender.org
mtllib chains.mtl
o chain.002_Cube.007
v -0.044194 -0.500293 -0.044194
v 0.044194 -0.500293 0.044194
v -0.044194 -0.500293 0.044194
v 0.044194 -0.500293 -0.044194
v 0.044194 0.500293 0.044194
v -0.044194 0.500293 -0.044194
v 0.044194 0.500293 -0.044194
v -0.044194 0.500293 0.044194
vt 1.000000 1.000000
vt 1.000000 0.500000
vt -0.000000 0.500000
vt -0.000000 1.000000
vt 1.000000 0.000000
vt 0.000000 0.000000
vt 0.000000 0.500000
vt 1.000000 0.500000
vn 0.7071 0.0000 -0.7071
vn 0.7071 0.0000 0.7071
usemtl Material
s off
f 2/1/1 1/2/1 6/3/1 5/4/1
f 4/5/2 7/6/2 8/7/2 3/8/2
