# Blender 4.0.2
# www.blender.org
g mug_Mesh_3
v 0.136085 -0.027367 0.163021
v 0.136085 -0.496391 0.163021
v 0.136085 -0.027367 -0.159433
v 0.136085 -0.496391 0.163021
v 0.136085 -0.496391 -0.159433
v 0.136085 -0.027367 -0.159433
v -0.186369 -0.027367 -0.159433
v -0.186369 -0.496391 -0.159433
v -0.186369 -0.027367 0.163021
v -0.186369 -0.496391 -0.159433
v -0.186369 -0.496391 0.163021
v -0.186369 -0.027367 0.163021
v -0.186369 -0.027367 -0.159433
v -0.186369 -0.027367 0.163021
v 0.136085 -0.027367 -0.159433
v -0.186369 -0.027367 0.163021
v 0.136085 -0.027367 0.163021
v 0.136085 -0.027367 -0.159433
v -0.186369 -0.496391 0.163021
v -0.186369 -0.496391 -0.159433
v 0.136085 -0.496391 0.163021
v -0.186369 -0.496391 -0.159433
v 0.136085 -0.496391 -0.159433
v 0.136085 -0.496391 0.163021
v -0.186369 -0.027367 0.163021
v -0.186369 -0.496391 0.163021
v 0.136085 -0.027367 0.163021
v -0.186369 -0.496391 0.163021
v 0.136085 -0.496391 0.163021
v 0.136085 -0.027367 0.163021
v 0.136085 -0.027367 -0.159433
v 0.136085 -0.496391 -0.159433
v -0.186369 -0.027367 -0.159433
v 0.136085 -0.496391 -0.159433
v -0.186369 -0.496391 -0.159433
v -0.186369 -0.027367 -0.159433
v -0.303625 -0.115309 0.045179
v -0.303625 -0.423106 0.045179
v -0.303625 -0.115309 -0.041591
v -0.303625 -0.423106 0.045179
v -0.303625 -0.423106 -0.041591
v -0.303625 -0.115309 -0.041591
v -0.347596 -0.115309 -0.041591
v -0.347596 -0.423106 -0.041591
v -0.347596 -0.115309 0.045179
v -0.347596 -0.423106 -0.041591
v -0.347596 -0.423106 0.045179
v -0.347596 -0.115309 0.045179
v -0.347596 -0.115309 -0.041591
v -0.347596 -0.115309 0.045179
v -0.303625 -0.115309 -0.041591
v -0.347596 -0.115309 0.045179
v -0.303625 -0.115309 0.045179
v -0.303625 -0.115309 -0.041591
v -0.347596 -0.423106 0.045179
v -0.347596 -0.423106 -0.041591
v -0.303625 -0.423106 0.045179
v -0.347596 -0.423106 -0.041591
v -0.303625 -0.423106 -0.041591
v -0.303625 -0.423106 0.045179
v -0.347596 -0.115309 0.045179
v -0.347596 -0.423106 0.045179
v -0.303625 -0.115309 0.045179
v -0.347596 -0.423106 0.045179
v -0.303625 -0.423106 0.045179
v -0.303625 -0.115309 0.045179
v -0.303625 -0.115309 -0.041591
v -0.303625 -0.423106 -0.041591
v -0.347596 -0.115309 -0.041591
v -0.303625 -0.423106 -0.041591
v -0.347596 -0.423106 -0.041591
v -0.347596 -0.115309 -0.041591
v -0.201026 -0.085995 0.045765
v -0.201026 -0.144623 0.045765
v -0.201026 -0.085995 -0.042177
v -0.201026 -0.144623 0.045765
v -0.201026 -0.144623 -0.042177
v -0.201026 -0.085995 -0.042177
v -0.318282 -0.085995 -0.042177
v -0.318282 -0.144623 -0.042177
v -0.318282 -0.085995 0.045765
v -0.318282 -0.144623 -0.042177
v -0.318282 -0.144623 0.045765
v -0.318282 -0.085995 0.045765
v -0.318282 -0.085995 -0.042177
v -0.318282 -0.085995 0.045765
v -0.201026 -0.085995 -0.042177
v -0.318282 -0.085995 0.045765
v -0.201026 -0.085995 0.045765
v -0.201026 -0.085995 -0.042177
v -0.318282 -0.144623 0.045765
v -0.318282 -0.144623 -0.042177
v -0.201026 -0.144623 0.045765
v -0.318282 -0.144623 -0.042177
v -0.201026 -0.144623 -0.042177
v -0.201026 -0.144623 0.045765
v -0.318282 -0.085995 0.045765
v -0.318282 -0.144623 0.045765
v -0.201026 -0.085995 0.045765
v -0.318282 -0.144623 0.045765
v -0.201026 -0.144623 0.045765
v -0.201026 -0.085995 0.045765
v -0.201026 -0.085995 -0.042177
v -0.201026 -0.144623 -0.042177
v -0.318282 -0.085995 -0.042177
v -0.201026 -0.144623 -0.042177
v -0.318282 -0.144623 -0.042177
v -0.318282 -0.085995 -0.042177
v -0.201026 -0.393792 0.045765
v -0.201026 -0.437763 0.045765
v -0.201026 -0.393792 -0.042177
v -0.201026 -0.437763 0.045765
v -0.201026 -0.437763 -0.042177
v -0.201026 -0.393792 -0.042177
v -0.318282 -0.393792 -0.042177
v -0.318282 -0.437763 -0.042177
v -0.318282 -0.393792 0.045765
v -0.318282 -0.437763 -0.042177
v -0.318282 -0.437763 0.045765
v -0.318282 -0.393792 0.045765
v -0.318282 -0.393792 -0.042177
v -0.318282 -0.393792 0.045765
v -0.201026 -0.393792 -0.042177
v -0.318282 -0.393792 0.045765
v -0.201026 -0.393792 0.045765
v -0.201026 -0.393792 -0.042177
v -0.318282 -0.437763 0.045765
v -0.318282 -0.437763 -0.042177
v -0.201026 -0.437763 0.045765
v -0.318282 -0.437763 -0.042177
v -0.201026 -0.437763 -0.042177
v -0.201026 -0.437763 0.045765
v -0.318282 -0.393792 0.045765
v -0.318282 -0.437763 0.045765
v -0.201026 -0.393792 0.045765
v -0.318282 -0.437763 0.045765
v -0.201026 -0.437763 0.045765
v -0.201026 -0.393792 0.045765
v -0.201026 -0.393792 -0.042177
v -0.201026 -0.437763 -0.042177
v -0.318282 -0.393792 -0.042177
v -0.201026 -0.437763 -0.042177
v -0.318282 -0.437763 -0.042177
v -0.318282 -0.393792 -0.042177
v 0.150742 -0.379135 0.177678
v 0.150742 -0.467077 0.177678
v 0.150742 -0.379135 -0.174090
v 0.150742 -0.467077 0.177678
v 0.150742 -0.467077 -0.174090
v 0.150742 -0.379135 -0.174090
v -0.201026 -0.379135 -0.174090
v -0.201026 -0.467077 -0.174090
v -0.201026 -0.379135 0.177678
v -0.201026 -0.467077 -0.174090
v -0.201026 -0.467077 0.177678
v -0.201026 -0.379135 0.177678
v -0.201026 -0.379135 -0.174090
v -0.201026 -0.379135 0.177678
v 0.150742 -0.379135 -0.174090
v -0.201026 -0.379135 0.177678
v 0.150742 -0.379135 0.177678
v 0.150742 -0.379135 -0.174090
v -0.201026 -0.467077 0.177678
v -0.201026 -0.467077 -0.174090
v 0.150742 -0.467077 0.177678
v -0.201026 -0.467077 -0.174090
v 0.150742 -0.467077 -0.174090
v 0.150742 -0.467077 0.177678
v -0.201026 -0.379135 0.177678
v -0.201026 -0.467077 0.177678
v 0.150742 -0.379135 0.177678
v -0.201026 -0.467077 0.177678
v 0.150742 -0.467077 0.177678
v 0.150742 -0.379135 0.177678
v 0.150742 -0.379135 -0.174090
v 0.150742 -0.467077 -0.174090
v -0.201026 -0.379135 -0.174090
v 0.150742 -0.467077 -0.174090
v -0.201026 -0.467077 -0.174090
v -0.201026 -0.379135 -0.174090
v 0.150742 -0.056681 0.177678
v 0.150742 -0.144623 0.177678
v 0.150742 -0.056681 -0.174090
v 0.150742 -0.144623 0.177678
v 0.150742 -0.144623 -0.174090
v 0.150742 -0.056681 -0.174090
v -0.201026 -0.056681 -0.174090
v -0.201026 -0.144623 -0.174090
v -0.201026 -0.056681 0.177678
v -0.201026 -0.144623 -0.174090
v -0.201026 -0.144623 0.177678
v -0.201026 -0.056681 0.177678
v -0.201026 -0.056681 -0.174090
v -0.201026 -0.056681 0.177678
v 0.150742 -0.056681 -0.174090
v -0.201026 -0.056681 0.177678
v 0.150742 -0.056681 0.177678
v 0.150742 -0.056681 -0.174090
v -0.201026 -0.144623 0.177678
v -0.201026 -0.144623 -0.174090
v 0.150742 -0.144623 0.177678
v -0.201026 -0.144623 -0.174090
v 0.150742 -0.144623 -0.174090
v 0.150742 -0.144623 0.177678
v -0.201026 -0.056681 0.177678
v -0.201026 -0.144623 0.177678
v 0.150742 -0.056681 0.177678
v -0.201026 -0.144623 0.177678
v 0.150742 -0.144623 0.177678
v 0.150742 -0.056681 0.177678
v 0.150742 -0.056681 -0.174090
v 0.150742 -0.144623 -0.174090
v -0.201026 -0.056681 -0.174090
v 0.150742 -0.144623 -0.174090
v -0.201026 -0.144623 -0.174090
v -0.201026 -0.056681 -0.174090
vn 1.0000 -0.0000 -0.0000
vn -1.0000 -0.0000 -0.0000
vn -0.0000 1.0000 -0.0000
vn -0.0000 -1.0000 -0.0000
vn -0.0000 -0.0000 1.0000
vn -0.0000 -0.0000 -1.0000
vt 0.000000 0.000000
vt 0.000000 0.750000
vt 0.500000 0.000000
vt 0.500000 0.750000
vt 0.500000 0.500000
vt 1.000000 0.000000
vt 1.000000 0.500000
vt 0.187500 0.250000
vt 0.187500 0.687500
vt 0.312500 0.250000
vt 0.312500 0.687500
vt 0.250000 0.437500
vt 0.250000 0.562500
vt 0.312500 0.437500
vt 0.312500 0.562500
vt 0.250000 0.312500
vt 0.312500 0.312500
vt 0.250000 0.250000
vt 0.250000 0.687500
vt 0.187500 0.312500
vt 0.187500 0.375000
vt 0.312500 0.375000
vt 0.187500 0.875000
vt 0.187500 0.937500
vt 0.312500 0.875000
vt 0.312500 0.937500
vt 0.562500 0.500000
vt 0.562500 0.625000
vt 0.375000 0.500000
vt 0.375000 0.625000
vt 0.562500 0.593750
vt 0.375000 0.593750
vt 0.250000 0.875000
vt 0.250000 0.937500
vt 0.375000 0.875000
vt 0.375000 0.937500
vt 0.562500 0.562500
vt 0.375000 0.562500
vt 0.000000 1.000000
vt 0.000000 0.812500
vt 0.562500 1.000000
vt 0.562500 0.812500
vt 0.125000 0.812500
vt 0.125000 0.875000
vt 0.187500 0.812500
vt 0.125000 0.937500
s 0
f 1/1/1 2/2/1 3/3/1
f 4/2/1 5/4/1 6/3/1
f 7/1/2 8/2/2 9/3/2
f 10/2/2 11/4/2 12/3/2
f 13/3/3 14/5/3 15/6/3
f 16/5/3 17/7/3 18/6/3
f 19/3/4 20/5/4 21/6/4
f 22/5/4 23/7/4 24/6/4
f 25/1/5 26/2/5 27/3/5
f 28/2/5 29/4/5 30/3/5
f 31/1/6 32/2/6 33/3/6
f 34/2/6 35/4/6 36/3/6
f 37/8/1 38/9/1 39/10/1
f 40/9/1 41/11/1 42/10/1
f 43/8/2 44/9/2 45/10/2
f 46/9/2 47/11/2 48/10/2
f 49/12/3 50/13/3 51/14/3
f 52/13/3 53/15/3 54/14/3
f 55/16/4 56/12/4 57/17/4
f 58/12/4 59/14/4 60/17/4
f 61/18/5 62/19/5 63/10/5
f 64/19/5 65/11/5 66/10/5
f 67/18/6 68/19/6 69/10/6
f 70/19/6 71/11/6 72/10/6
f 73/20/1 74/21/1 75/17/1
f 76/21/1 77/22/1 78/17/1
f 79/23/2 80/24/2 81/25/2
f 82/24/2 83/26/2 84/25/2
f 85/27/3 86/28/3 87/29/3
f 88/28/3 89/30/3 90/29/3
f 91/27/4 92/28/4 93/29/4
f 94/28/4 95/30/4 96/29/4
f 97/27/5 98/31/5 99/29/5
f 100/31/5 101/32/5 102/29/5
f 103/29/6 104/32/6 105/27/6
f 106/32/6 107/31/6 108/27/6
f 109/20/1 110/21/1 111/17/1
f 112/21/1 113/22/1 114/17/1
f 115/33/2 116/34/2 117/35/2
f 118/34/2 119/36/2 120/35/2
f 121/27/3 122/28/3 123/29/3
f 124/28/3 125/30/3 126/29/3
f 127/27/4 128/28/4 129/29/4
f 130/28/4 131/30/4 132/29/4
f 133/37/5 134/28/5 135/38/5
f 136/28/5 137/30/5 138/38/5
f 139/38/6 140/30/6 141/37/6
f 142/30/6 143/28/6 144/37/6
f 145/39/1 146/40/1 147/41/1
f 148/40/1 149/42/1 150/41/1
f 151/39/2 152/40/2 153/41/2
f 154/40/2 155/42/2 156/41/2
f 157/43/3 158/44/3 159/45/3
f 160/44/3 161/23/3 162/45/3
f 163/44/4 164/46/4 165/23/4
f 166/46/4 167/24/4 168/23/4
f 169/39/5 170/40/5 171/41/5
f 172/40/5 173/42/5 174/41/5
f 175/39/6 176/40/6 177/41/6
f 178/40/6 179/42/6 180/41/6
f 181/40/1 182/39/1 183/42/1
f 184/39/1 185/41/1 186/42/1
f 187/40/2 188/39/2 189/42/2
f 190/39/2 191/41/2 192/42/2
f 193/43/3 194/44/3 195/45/3
f 196/44/3 197/23/3 198/45/3
f 199/44/4 200/46/4 201/23/4
f 202/46/4 203/24/4 204/23/4
f 205/40/5 206/39/5 207/42/5
f 208/39/5 209/41/5 210/42/5
f 211/40/6 212/39/6 213/42/6
f 214/39/6 215/41/6 216/42/6
