# Blender 4.0.2
# www.blender.org
o iron_bottle1
v -0.250000 -0.500000 0.250000
v -0.250000 -0.500000 -0.250000
v 0.250000 -0.500000 0.250000
v 0.250000 -0.500000 -0.250000
v -0.125000 0.187500 0.125000
v -0.125000 0.187500 -0.125000
v 0.125000 0.187500 -0.125000
v 0.125000 0.187500 0.125000
v -0.250000 0.187500 0.250000
v -0.250000 0.187500 -0.250000
v 0.250000 0.187500 -0.250000
v 0.250000 0.187500 0.250000
v 0.125000 0.312500 -0.125000
v 0.125000 0.312500 0.125000
v -0.125000 0.312500 0.125000
v -0.125000 0.312500 -0.125000
v 0.187500 0.437500 0.187500
v -0.187500 0.437500 0.187500
v -0.187500 0.312500 0.187500
v 0.187500 0.312500 0.187500
v -0.187500 0.437500 -0.187500
v 0.187500 0.437500 -0.187500
v 0.187500 0.312500 -0.187500
v -0.187500 0.312500 -0.187500
vn -1.0000 -0.0000 -0.0000
vn -0.0000 -0.0000 -1.0000
vn 1.0000 -0.0000 -0.0000
vn -0.0000 -0.0000 1.0000
vn -0.0000 -1.0000 -0.0000
vn -0.0000 1.0000 -0.0000
vt 0.500000 0.062500
vt 0.500000 0.750000
vt 0.000000 0.750000
vt 0.000000 0.062500
vt 0.500000 0.500000
vt 1.000000 0.500000
vt 1.000000 0.000000
vt 0.500000 0.000000
vt 0.625000 0.625000
vt 0.625000 0.875000
vt 0.500000 1.000000
vt 0.875000 0.875000
vt 1.000000 1.000000
vt 0.875000 0.625000
vt 0.562500 0.562500
vt 0.562500 0.937500
vt 0.937500 0.562500
vt 0.125000 0.750000
vt 0.375000 0.750000
vt 0.375000 0.875000
vt 0.125000 0.875000
vt 0.062500 0.875000
vt 0.437500 0.875000
vt 0.437500 1.000000
vt 0.062500 1.000000
vt 0.937500 0.937500
vt 0.562500 0.437500
vt 0.562500 0.062500
vt 0.937500 0.062500
vt 0.937500 0.437500
s 0
f 1/1/1 9/2/1 10/3/1 2/4/1
f 2/1/2 10/2/2 11/3/2 4/4/2
f 4/1/3 11/2/3 12/3/3 3/4/3
f 3/1/4 12/2/4 9/3/4 1/4/4
f 2/5/5 4/6/5 3/7/5 1/8/5
f 5/9/6 6/10/6 10/11/6 9/5/6
f 6/10/6 7/12/6 11/13/6 10/11/6
f 7/12/6 8/14/6 12/6/6 11/13/6
f 8/14/6 5/9/6 9/5/6 12/6/6
f 16/10/5 15/9/5 19/15/5 24/16/5
f 15/9/5 14/14/5 20/17/5 19/15/5
f 7/18/2 6/19/2 16/20/2 13/21/2
f 5/18/4 8/19/4 14/20/4 15/21/4
f 6/18/1 5/19/1 15/20/1 16/21/1
f 8/18/3 7/19/3 13/20/3 14/21/3
f 19/22/4 20/23/4 17/24/4 18/25/4
f 23/22/2 24/23/2 21/24/2 22/25/2
f 13/12/5 16/10/5 24/16/5 23/26/5
f 21/27/6 18/28/6 17/29/6 22/30/6
f 24/22/1 19/23/1 18/24/1 21/25/1
f 20/22/3 23/23/3 22/24/3 17/25/3
f 14/14/5 13/12/5 23/26/5 20/17/5
