# Blender v3.2.0 OBJ File: ''
# www.blender.org
mtllib chains_45.mtl
o chain.002_Cube.007
v -0.468968 -0.531467 0.044194
v -0.531467 -0.468968 -0.044194
v 0.468968 0.531467 -0.044194
v 0.531467 0.468968 0.044194
v -0.468968 -0.531467 -0.044194
v 0.531467 0.468968 -0.044194
v 0.468968 0.531467 0.044194
v -0.531467 -0.468968 0.044194
vt 1.000000 1.000000
vt 1.000000 0.500000
vt -0.000000 0.500000
vt -0.000000 1.000000
vt 1.000000 0.000000
vt 0.000000 0.000000
vt 0.000000 0.500000
vt 1.000000 0.500000
vn 0.5000 -0.5000 -0.7071
vn 0.5000 -0.5000 0.7071
usemtl Material.001
s 1
f 1/1/1 2/2/1 3/3/1 4/4/1
f 5/5/2 6/6/2 7/7/2 8/8/2
