# Blender v3.2.0 OBJ File: ''
# www.blender.org
mtllib chains_45_45.mtl
o chain.002_Cube.007
v -0.450949 -0.536429 0.513449
v -0.549538 -0.464266 0.487038
v 0.450949 0.536429 -0.513449
v 0.549538 0.464266 -0.487038
v -0.513449 -0.536429 0.450949
v 0.487038 0.464266 -0.549538
v 0.513449 0.536429 -0.450949
v -0.487038 -0.464266 0.549538
vt 1.000000 1.000000
vt 1.000000 0.500000
vt -0.000000 0.500000
vt -0.000000 1.000000
vt 1.000000 0.000000
vt 0.000000 0.000000
vt 0.000000 0.500000
vt 1.000000 0.500000
vn -0.2113 -0.5773 -0.7887
vn 0.7887 -0.5773 0.2113
usemtl Material.001
s 1
f 1/1/1 2/2/1 3/3/1 4/4/1
f 5/5/2 6/6/2 7/7/2 8/8/2
