# Blender 4.0.2
# www.blender.org
mtllib onager_without_animation(test).mtl
o Onager
v 1.437500 -0.250000 -0.875000
v 1.437500 0.000000 -0.875000
v 1.437500 -0.250000 -0.625000
v 1.437500 0.000000 -0.625000
v -1.437500 -0.250000 -0.875000
v -1.437500 0.000000 -0.875000
v -1.437500 -0.250000 -0.625000
v -1.437500 0.000000 -0.625000
v -0.562500 -0.250000 -0.625000
v -0.312500 -0.250000 -0.625000
v -0.312500 0.000000 -0.625000
v -0.562500 0.000000 -0.625000
v -0.312500 -0.250000 -0.875000
v -0.562500 -0.250000 -0.875000
v -0.562500 0.000000 -0.875000
v -0.312500 0.000000 -0.875000
v -0.312500 1.062500 -0.625000
v -0.562500 1.062500 -0.625000
v -0.562500 1.062500 -0.875000
v -0.312500 1.062500 -0.875000
v -0.344818 0.933996 -0.812500
v -0.488579 1.054366 -0.812500
v -0.344818 0.933996 -0.687500
v -0.488579 1.054366 -0.687500
v -1.267656 -0.168173 -0.812500
v -1.411417 -0.047803 -0.812500
v -1.267656 -0.168173 -0.687500
v -1.411417 -0.047803 -0.687500
v -1.250000 -0.250000 -0.625000
v -1.250000 -0.062500 -0.625000
v -1.375000 -0.250000 -0.625000
v -1.375000 -0.062500 -0.625000
v 1.375000 -0.250000 -0.625000
v 1.375000 -0.125000 -0.625000
v 1.250000 -0.250000 -0.625000
v 1.250000 -0.125000 -0.625000
v -0.375000 0.875000 -0.625000
v -0.375000 1.000000 -0.625000
v -0.500000 0.875000 -0.625000
v -0.500000 1.000000 -0.625000
v -0.375000 0.875000 -0.437500
v -0.375000 1.000000 -0.437500
v -0.500000 0.875000 -0.437500
v -0.500000 1.000000 -0.437500
v -0.312500 1.062500 -0.437500
v -0.562500 0.812500 -0.437500
v -0.312500 0.812500 -0.437500
v -0.562500 1.062500 -0.437500
v -0.248613 -0.188856 -0.625000
v -0.123644 -0.186114 -0.625000
v -0.251356 -0.063886 -0.625000
v -0.126386 -0.061144 -0.625000
v -0.250000 -0.187500 -0.875000
v -0.125000 -0.187500 -0.875000
v -0.250000 -0.062500 -0.875000
v -0.125000 -0.062500 -0.875000
v -0.250000 -0.187500 -0.937500
v -0.125000 -0.187500 -0.937500
v -0.250000 -0.062500 -0.937500
v -0.125000 -0.062500 -0.937500
v 1.500535 -0.119302 -0.125000
v 1.499164 -0.056817 -0.125000
v -0.186559 -0.156329 -0.125000
v -0.187930 -0.093844 -0.125000
v 2.061528 -0.044474 -0.250000
v 1.561649 -0.055445 -0.250000
v 2.122642 0.019382 -0.312499
v 1.497792 0.005668 -0.312500
v 1.560277 0.007040 -0.250000
v 2.060157 0.018010 -0.250000
v 1.501907 -0.181787 -0.312500
v 2.126756 -0.168073 -0.312499
v 1.437500 -0.250000 0.875000
v 1.437500 0.000000 0.875000
v 1.437500 -0.250000 0.625000
v 1.437500 0.000000 0.625000
v -1.437500 -0.250000 0.875000
v -1.437500 0.000000 0.875000
v -1.437500 -0.250000 0.625000
v -1.437500 0.000000 0.625000
v -0.562500 -0.250000 0.625000
v -0.312500 -0.250000 0.625000
v -0.312500 0.000000 0.625000
v -0.562500 0.000000 0.625000
v -0.312500 -0.250000 0.875000
v -0.562500 -0.250000 0.875000
v -0.562500 0.000000 0.875000
v -0.312500 0.000000 0.875000
v -0.312500 1.062500 0.625000
v -0.562500 1.062500 0.625000
v -0.562500 1.062500 0.875000
v -0.312500 1.062500 0.875000
v -0.344818 0.933996 0.812500
v -0.488579 1.054366 0.812500
v -0.344818 0.933996 0.687500
v -0.488579 1.054366 0.687500
v -1.267656 -0.168173 0.812500
v -1.411417 -0.047803 0.812500
v -1.267656 -0.168173 0.687500
v -1.411417 -0.047803 0.687500
v -1.250000 -0.250000 0.625000
v -1.250000 -0.062500 0.625000
v -1.375000 -0.250000 0.625000
v -1.375000 -0.062500 0.625000
v 1.375000 -0.250000 0.625000
v 1.375000 -0.125000 0.625000
v 1.250000 -0.250000 0.625000
v 1.250000 -0.125000 0.625000
v -0.375000 0.875000 0.625000
v -0.375000 1.000000 0.625000
v -0.500000 0.875000 0.625000
v -0.500000 1.000000 0.625000
v -0.375000 0.875000 0.437500
v -0.375000 1.000000 0.437500
v -0.500000 0.875000 0.437500
v -0.500000 1.000000 0.437500
v -0.312500 1.062500 0.437500
v -0.562500 0.812500 0.437500
v -0.312500 0.812500 0.437500
v -0.562500 1.062500 0.437500
v -0.248614 -0.188856 0.625000
v -0.123644 -0.186114 0.625000
v -0.251356 -0.063886 0.625000
v -0.126387 -0.061144 0.625000
v -0.250000 -0.187500 0.875000
v -0.125000 -0.187500 0.875000
v -0.250000 -0.062500 0.875000
v -0.125000 -0.062500 0.875000
v -0.250000 -0.187500 0.937500
v -0.125000 -0.187500 0.937500
v -0.250000 -0.062500 0.937500
v -0.125000 -0.062500 0.937500
v 1.500535 -0.119302 0.125000
v 1.499164 -0.056817 0.125000
v -0.186559 -0.156329 0.125000
v -0.187930 -0.093844 0.125000
v 2.061528 -0.044474 0.250001
v 1.561649 -0.055445 0.250000
v 2.122642 0.019382 0.312501
v 1.497792 0.005668 0.312500
v 1.560277 0.007040 0.250000
v 2.060157 0.018010 0.250001
v 1.501907 -0.181787 0.312500
v 2.126756 -0.168073 0.312501
vn 1.0000 -0.0000 -0.0000
vn -1.0000 -0.0000 -0.0000
vn -0.0000 1.0000 -0.0000
vn -0.0000 -0.0000 -1.0000
vn -0.0000 -1.0000 -0.0000
vn -0.0000 -0.0000 1.0000
vn 0.7667 -0.6420 -0.0000
vn -0.7667 0.6420 -0.0000
vn 0.0219 -0.9998 -0.0000
vn -0.9998 -0.0219 -0.0000
vn 0.9998 0.0219 -0.0000
vn -0.0219 0.9998 -0.0000
vt 0.692308 0.925926
vt 0.692308 1.000000
vt 0.769231 1.000000
vt 0.769231 0.925926
vt 0.846154 1.000000
vt 0.846154 0.740741
vt 0.923077 0.740741
vt 0.923077 1.000000
vt 0.692308 0.611111
vt 0.615385 0.925926
vt 0.615385 0.611111
vt 0.846154 0.148148
vt 0.923077 0.148148
vt 0.923077 0.666667
vt 0.846154 0.666667
vt 1.000000 0.740741
vt 1.000000 1.000000
vt 1.000000 0.666667
vt 1.000000 0.148148
vt 0.769231 0.148148
vt 0.769231 0.666667
vt 0.769231 0.740741
vt 0.615385 1.000000
vt 0.692308 0.296296
vt 0.615385 0.296296
vt 0.769231 0.296296
vt 0.769231 0.611111
vt 0.365385 1.000000
vt 0.423077 1.000000
vt 0.423077 0.444444
vt 0.365385 0.444444
vt 0.326923 0.444444
vt 0.326923 1.000000
vt 0.461538 0.444444
vt 0.461538 1.000000
vt 0.230769 0.296296
vt 0.615385 0.296296
vt 0.615385 0.259259
vt 0.230769 0.259259
vt 0.615385 0.074074
vt 1.000000 0.074074
vt 1.000000 0.111111
vt 0.615385 0.111111
vt 0.230769 0.148148
vt 0.615385 0.148148
vt 0.615385 0.203704
vt 0.230769 0.203704
vt 0.230769 0.111111
vt 0.615385 0.111111
vt 0.615385 0.074074
vt 0.230769 0.074074
vt 0.230769 0.000000
vt 0.615385 0.000000
vt 0.615385 0.037037
vt 0.230769 0.037037
vt 0.538462 0.870370
vt 0.500000 0.870370
vt 0.480769 0.851852
vt 0.557692 0.851852
vt 0.615385 0.962963
vt 0.557692 1.000000
vt 0.557692 0.962963
vt 0.557692 0.925926
vt 0.615385 0.851852
vt 0.615385 0.888889
vt 0.557692 0.888889
vt 0.500000 0.907407
vt 0.480769 0.925926
vt 0.538462 0.907407
vt 0.538462 0.333333
vt 0.538462 0.592593
vt 0.615385 0.592593
vt 0.615385 0.333333
vt 0.461538 0.592593
vt 0.461538 0.851852
vt 0.538462 0.851852
vt 0.615385 0.851852
vt 0.615385 0.592593
vt 0.538462 0.592593
vt 0.538462 0.851852
vt 1.000000 0.074074
vt 0.615385 0.074074
vt 0.615385 0.037037
vt 1.000000 0.037037
vt 0.326923 0.500000
vt 0.230769 0.500000
vt 0.230769 1.000000
vt 1.000000 0.111111
vt 1.000000 0.037037
vt 1.000000 0.000000
vt 0.730769 0.203704
vt 0.730769 0.185185
vt 0.750000 0.185185
vt 0.750000 0.203704
vt 0.769231 0.185185
vt 0.769231 0.203704
vt 0.730769 0.148148
vt 0.250000 1.000000
vt 0.250000 0.500000
vt 0.250000 0.481481
vt 0.307692 0.481481
vt 0.307692 0.296296
vt 0.250000 0.296296
vt 0.288462 0.425926
vt 0.288462 0.351852
vt 0.269231 0.351852
vt 0.269231 0.425926
vt 0.057692 0.629630
vt 0.038462 0.648148
vt 0.038462 0.462963
vt 0.057692 0.481481
vt 0.230769 0.444444
vt 0.250000 0.444444
vt 0.307692 0.444444
vt 0.461538 0.296296
vt 0.230769 0.462963
vt 0.230769 0.648148
vt 0.211538 0.629630
vt 0.211538 0.481481
vt 0.230769 0.444444
vt 0.250000 0.444444
vt 0.692308 0.925926
vt 0.769231 0.925926
vt 0.769231 0.611111
vt 0.692308 0.611111
vt 0.230769 0.277778
vt 0.038462 0.277778
vt 0.461538 0.333333
s 0
usemtl Material
f 1/1/1 2/2/1 4/3/1 3/4/1
f 7/4/2 8/3/2 6/2/2 5/1/2
f 8/5/3 12/6/3 15/7/3 6/8/3
f 15/9/4 19/1/4 20/10/4 16/11/4
f 4/12/3 2/13/3 16/14/3 11/15/3
f 3/12/5 10/15/5 13/14/5 1/13/5
f 9/6/5 14/7/5 13/14/5 10/15/5
f 7/5/5 5/8/5 14/7/5 9/6/5
f 6/8/4 15/7/4 14/16/4 5/17/4
f 15/7/4 16/14/4 13/18/4 14/16/4
f 16/14/4 2/13/4 1/19/4 13/18/4
f 4/20/6 11/21/6 10/15/6 3/12/6
f 11/21/6 12/22/6 9/6/6 10/15/6
f 12/22/6 8/3/6 7/5/6 9/6/6
f 17/23/3 20/10/3 19/1/3 18/2/3
f 15/24/2 12/25/2 18/11/2 19/9/2
f 11/26/1 16/24/1 20/9/1 17/27/1
f 23/28/6 24/29/6 28/30/6 27/31/6
f 25/31/4 26/30/4 22/29/4 21/28/4
f 23/32/7 27/33/7 25/28/7 21/31/7
f 28/34/8 24/35/8 22/29/8 26/30/8
f 29/36/5 101/37/5 103/38/5 31/39/5
f 121/40/9 49/41/9 50/42/9 122/43/9
f 32/39/3 104/38/3 102/37/3 30/36/3
f 31/44/2 103/45/2 104/46/2 32/47/2
f 33/48/5 105/49/5 107/50/5 35/51/5
f 36/52/3 108/53/3 106/54/3 34/55/3
f 35/55/2 107/54/2 108/50/2 36/51/2
f 43/56/4 41/57/4 47/58/4 46/59/4
f 43/60/2 44/23/2 40/61/2 39/62/2
f 41/60/5 43/10/5 39/63/5 37/62/5
f 44/64/3 42/65/3 38/66/3 40/59/3
f 41/57/4 42/67/4 45/68/4 47/58/4
f 42/67/4 44/69/4 48/63/4 45/68/4
f 44/69/4 43/56/4 46/59/4 48/63/4
f 37/66/1 38/63/1 42/10/1 41/65/1
f 47/70/5 119/71/5 118/72/5 46/73/5
f 46/74/2 118/75/2 120/76/2 48/71/2
f 48/77/3 120/78/3 117/79/3 45/80/3
f 101/46/1 29/47/1 30/39/1 102/38/1
f 49/81/10 121/82/10 123/83/10 51/84/10
f 61/85/9 133/86/9 135/87/9 63/33/9
f 52/19/11 124/45/11 122/49/11 50/88/11
f 51/89/12 123/54/12 124/53/12 52/90/12
f 54/91/1 58/92/1 60/93/1 56/94/1
f 56/94/3 60/93/3 59/95/3 55/96/3
f 55/96/2 59/95/2 57/93/2 53/94/2
f 53/94/5 57/93/5 58/92/5 54/91/5
f 58/97/4 57/20/4 59/95/4 60/92/4
f 63/98/4 64/87/4 62/86/4 61/99/4
f 64/33/12 136/87/12 134/86/12 62/85/12
f 139/100/11 144/101/11 72/102/11 67/103/11
f 143/101/10 133/104/10 61/105/10 71/102/10
f 68/103/10 71/102/10 61/105/10 62/106/10
f 140/100/10 134/107/10 133/104/10 143/101/10
f 71/101/4 68/100/4 67/103/4 72/102/4
f 142/108/12 139/109/12 67/110/12 70/111/12
f 141/112/11 138/113/11 66/103/11 69/36/11
f 138/34/12 137/114/12 65/102/12 66/115/12
f 68/116/12 140/117/12 141/118/12 69/119/12
f 70/111/12 67/110/12 68/116/12 69/119/12
f 65/103/6 70/36/6 69/120/6 66/121/6
f 105/49/1 33/48/1 34/44/1 106/45/1
f 137/113/10 142/112/10 70/36/10 65/103/10
f 73/1/1 75/4/1 76/3/1 74/2/1
f 79/4/2 77/1/2 78/2/2 80/3/2
f 80/5/3 78/8/3 87/7/3 84/6/3
f 83/9/4 84/27/4 90/4/4 89/1/4
f 87/9/6 88/11/6 92/10/6 91/1/6
f 76/12/3 83/15/3 88/14/3 74/13/3
f 75/12/5 73/13/5 85/14/5 82/15/5
f 81/6/5 82/15/5 85/14/5 86/7/5
f 79/5/5 81/6/5 86/7/5 77/8/5
f 78/8/6 77/17/6 86/16/6 87/7/6
f 87/7/6 86/16/6 85/18/6 88/14/6
f 88/14/6 85/18/6 73/19/6 74/13/6
f 76/20/4 75/12/4 82/15/4 83/21/4
f 83/21/4 82/15/4 81/6/4 84/22/4
f 84/22/4 81/6/4 79/5/4 80/3/4
f 89/10/3 90/1/3 91/2/3 92/23/3
f 87/24/2 91/9/2 90/11/2 84/25/2
f 83/26/1 89/27/1 92/9/1 88/24/1
f 95/29/4 99/30/4 100/31/4 96/28/4
f 97/31/6 93/28/6 94/29/6 98/30/6
f 95/33/7 93/28/7 97/31/7 99/32/7
f 100/34/8 98/30/8 94/29/8 96/35/8
f 115/67/6 118/68/6 119/63/6 113/69/6
f 115/23/2 111/61/2 112/62/2 116/60/2
f 113/10/5 109/63/5 111/62/5 115/60/5
f 116/65/3 112/66/3 110/59/3 114/64/3
f 113/69/6 119/63/6 117/59/6 114/56/6
f 114/56/6 117/59/6 120/58/6 116/57/6
f 116/57/6 120/58/6 118/68/6 115/67/6
f 109/63/1 113/10/1 114/65/1 110/66/1
f 126/92/1 128/93/1 132/94/1 130/91/1
f 128/93/3 127/95/3 131/96/3 132/94/3
f 127/95/2 125/93/2 129/94/2 131/96/2
f 125/93/5 126/92/5 130/91/5 129/94/5
f 130/20/6 132/95/6 131/92/6 129/97/6
f 135/98/6 133/99/6 134/86/6 136/87/6
f 62/106/10 134/107/10 140/100/10 68/103/10
f 139/103/6 140/100/6 143/101/6 144/102/6
f 17/122/6 18/123/6 12/124/6 11/125/6
f 142/108/12 141/118/12 140/117/12 139/109/12
f 137/103/4 138/113/4 141/112/4 142/36/4
f 71/126/9 72/127/9 144/110/9 143/116/9
f 119/71/1 47/70/1 45/128/1 117/74/1
