# Blender 4.2.3 LTS
# www.blender.org
mtllib lord_vessels_bowl_6.mtl
o plate2
v -0.062500 -0.500000 0.000000
v -0.062500 -0.437500 0.000000
v -0.062500 -0.500000 -0.375000
v -0.062500 -0.437500 -0.375000
v 0.312500 -0.500000 0.000000
v 0.312500 -0.437500 0.000000
v 0.312500 -0.500000 -0.375000
v 0.312500 -0.437500 -0.375000
v -0.062500 -0.375000 0.000000
v -0.062500 -0.375000 -0.375000
v 0.312500 -0.375000 -0.375000
v 0.312500 -0.375000 0.000000
v 0.375000 -0.437500 -0.437500
v 0.375000 -0.437500 0.062500
v 0.375000 -0.375000 -0.437500
v 0.375000 -0.375000 0.062500
v -0.125000 -0.437500 0.062500
v -0.125000 -0.375000 0.062500
v -0.125000 -0.437500 -0.437500
v -0.125000 -0.375000 -0.437500
vn -1.0000 -0.0000 -0.0000
vn -0.0000 -0.0000 -1.0000
vn 1.0000 -0.0000 -0.0000
vn -0.0000 -0.0000 1.0000
vn -0.0000 -1.0000 -0.0000
vn -0.0000 1.0000 -0.0000
vt 0.250000 0.687500
vt 0.312500 0.687500
vt 0.312500 0.312500
vt 0.250000 0.312500
vt 0.312500 0.750000
vt 0.687500 0.750000
vt 0.687500 0.687500
vt 0.687500 0.312500
vt 0.750000 0.312500
vt 0.750000 0.687500
vt 0.687500 0.250000
vt 0.312500 0.250000
vt 0.812500 0.750000
vt 0.812500 0.250000
vt 0.875000 0.250000
vt 0.875000 0.750000
vt 0.250000 0.125000
vt 0.750000 0.125000
vt 0.750000 0.187500
vt 0.250000 0.187500
vt 0.187500 0.750000
vt 0.187500 0.250000
vt 0.125000 0.250000
vt 0.125000 0.750000
vt 0.750000 0.812500
vt 0.250000 0.812500
vt 0.250000 0.875000
vt 0.750000 0.875000
s 0
usemtl Material
f 1/1/1 2/2/1 4/3/1 3/4/1
f 3/2/2 4/5/2 8/6/2 7/7/2
f 7/8/3 8/9/3 6/10/3 5/7/3
f 5/11/4 6/8/4 2/3/4 1/12/4
f 3/2/5 7/7/5 5/8/5 1/3/5
f 6/9/5 8/10/5 13/13/5 14/14/5
f 6/8/6 8/7/6 4/2/6 2/3/6
f 14/13/3 13/14/3 15/15/3 16/16/3
f 11/10/6 12/9/6 16/14/6 15/13/6
f 17/17/4 14/18/4 16/19/4 18/20/4
f 12/11/6 9/12/6 18/20/6 16/19/6
f 2/12/5 6/11/5 14/19/5 17/20/5
f 9/4/6 10/1/6 20/21/6 18/22/6
f 19/23/1 17/24/1 18/21/1 20/22/1
f 4/1/5 2/4/5 17/22/5 19/21/5
f 13/25/2 19/26/2 20/27/2 15/28/2
f 10/5/6 11/6/6 15/25/6 20/26/6
f 8/6/5 4/5/5 19/26/5 13/25/5
f 4/2/4 8/7/4 11/6/4 10/5/4
f 11/9/1 8/8/1 6/7/1 12/10/1
f 12/8/2 6/11/2 2/12/2 9/3/2
f 9/2/3 2/1/3 4/4/3 10/3/3
