# Blender 3.4.1
# www.blender.org
mtllib smelter1.mtl
g smelter_surface
v -0.300065 1.500000 -0.299935
v -0.300065 1.000000 -0.299935
v 0.299935 1.500000 -0.300065
v 0.299935 1.000000 -0.300065
v -0.299935 1.500000 0.300065
v -0.299935 1.000000 0.300065
v 0.300065 1.500000 0.299935
v 0.300065 1.000000 0.299935
v -0.500109 0.500000 -0.499891
v -0.500109 -0.500000 -0.499891
v 0.499891 0.500000 -0.500109
v 0.499891 -0.500000 -0.500109
v -0.499891 0.500000 0.500109
v -0.499891 -0.500000 0.500109
v 0.500109 0.500000 0.499891
v 0.500109 -0.500000 0.499891
v -0.400087 1.000000 -0.399913
v -0.400087 0.500000 -0.399913
v 0.399913 1.000000 -0.400087
v 0.399913 0.500000 -0.400087
v -0.399913 1.000000 0.400087
v -0.399913 0.500000 0.400087
v 0.400087 1.000000 0.399913
v 0.400087 0.500000 0.399913
vn -0.0000 1.0000 -0.0000
vn 1.0000 -0.0000 -0.0002
vn 0.0002 -0.0000 1.0000
vn -0.0000 -1.0000 -0.0000
vn -0.0002 -0.0000 -1.0000
vn -1.0000 -0.0000 0.0002
vt 0.732193 0.053624
vt 0.000170 0.214211
vt 0.142955 0.053614
vt 0.732119 0.053644
vt 0.142731 0.214211
vt 0.285737 0.053614
vt 0.732193 0.214226
vt 0.285722 0.214307
vt 0.000170 0.054073
vt 0.428645 0.214307
vt 0.732119 0.214228
vt 0.142731 0.054073
vt 0.892824 0.053624
vt 0.428535 0.053634
vt 0.142955 0.214265
vt 0.571454 0.053644
vt 0.285737 0.214265
vt 0.892824 0.214226
vt 0.285722 0.054242
vt 0.428535 0.214285
vt 0.428645 0.054242
vt 0.571454 0.214228
vt 0.571506 0.714322
vt 1.006144 1.000246
vt 0.000052 0.428594
vt 0.857128 0.428628
vt 1.006144 -0.000128
vt 0.285660 0.428594
vt 0.571506 0.999974
vt 0.285752 1.000005
vt -0.000672 1.000247
vt 0.571373 1.000005
vt 0.857128 0.714258
vt -0.000672 -0.000128
vt 0.857128 0.714322
vt 0.285746 0.428695
vt 0.000052 0.714248
vt 0.571460 0.428628
vt 0.285660 0.714248
vt 0.857128 0.999974
vt 0.285746 0.714282
vt 0.571460 0.714258
vt 0.785744 0.214370
vt -0.000748 0.428371
vt 0.285794 0.214464
vt 0.785696 0.214296
vt 0.143169 0.428371
vt 0.428645 0.214464
vt 0.785744 0.428537
vt 0.142989 0.428468
vt -0.000748 0.215421
vt 0.285834 0.428468
vt 0.785696 0.428534
vt 0.143169 0.215421
vt 0.999975 0.214370
vt 0.428596 0.214538
vt 0.285794 0.428543
vt 0.571977 0.214538
vt 0.571537 0.214296
vt 0.428645 0.428543
vt 0.999975 0.428537
vt 0.142989 0.214336
vt 0.428596 0.428698
vt 0.285834 0.214336
vt 0.571977 0.428698
vt 0.571537 0.428534
s 0
g smelter_Stone
usemtl Stone
f 1/1/1 5/13/1 7/18/1 3/7/1
f 4/10/2 3/8/2 7/19/2 8/21/2
f 8/22/3 7/20/3 5/14/3 6/16/3
f 6/16/4 2/4/4 4/11/4 8/22/4
f 2/5/5 1/2/5 3/9/5 4/12/5
f 6/17/6 5/15/6 1/3/6 2/6/6
f 9/23/1 13/35/1 15/40/1 11/29/1
f 12/32/2 11/30/2 15/41/2 16/42/2
f 16/42/3 15/41/3 13/36/3 14/38/3
f 14/38/4 10/26/4 12/33/4 16/42/4
f 14/39/6 13/37/6 9/25/6 10/28/6
f 17/43/1 21/55/1 23/61/1 19/49/1
f 20/52/2 19/50/2 23/62/2 24/64/2
f 24/65/3 23/63/3 21/56/3 22/58/3
f 22/59/4 18/46/4 20/53/4 24/66/4
f 18/47/5 17/44/5 19/51/5 20/54/5
f 22/60/6 21/57/6 17/45/6 18/48/6
g smelter_Flame
usemtl Flame
f 10/27/5 9/24/5 11/31/5 12/34/5
