# Blender v3.0.0 OBJ File: 'lottfarming_plant.blend'
# www.blender.org
mtllib lottfarming_plant_1.mtl
o Плоскость.001
v -0.500000 -0.500000 -0.200000
v 0.500000 -0.500000 -0.200000
v -0.500000 0.500000 -0.200000
v 0.500000 0.500000 -0.200000
v 0.200000 -0.500000 0.500000
v 0.200000 -0.500000 -0.500000
v 0.200000 0.500000 0.500000
v 0.200000 0.500000 -0.500000
v -0.500000 -0.500000 0.200000
v 0.500000 -0.500000 0.200000
v -0.500000 0.500000 0.200000
v 0.500000 0.500000 0.200000
v -0.200000 -0.500000 0.500000
v -0.200000 -0.500000 -0.500000
v -0.200000 0.500000 0.500000
v -0.200000 0.500000 -0.500000
vt 0.000100 0.000100
vt 0.999900 0.000100
vt 0.999900 0.999900
vt 0.000100 0.999900
vt 0.000100 0.000100
vt 0.999900 0.000100
vt 0.999900 0.999900
vt 0.000100 0.999900
vt 0.000100 0.000100
vt 0.999900 0.000100
vt 0.999900 0.999900
vt 0.000100 0.999900
vt 0.000100 0.000100
vt 0.999900 0.000100
vt 0.999900 0.999900
vt 0.000100 0.999900
vn 0.0000 -0.0000 1.0000
vn 1.0000 -0.0000 -0.0000
usemtl Материал
s off
f 1/1/1 2/2/1 4/3/1 3/4/1
f 5/5/2 6/6/2 8/7/2 7/8/2
f 9/9/1 10/10/1 12/11/1 11/12/1
f 13/13/2 14/14/2 16/15/2 15/16/2
