# Blender v3.2.0 OBJ File: ''
# www.blender.org
mtllib christmas_tree.mtl
o Christmas_tree_Cube.001
v 0.075853 1.721278 -0.075852
v -0.075853 1.721278 -0.075852
v -0.075853 1.721278 0.075853
v 0.075853 1.721278 0.075853
v 0.075853 -0.705994 0.075853
v -0.075853 -0.705994 0.075853
v -0.075853 -0.705994 -0.075853
v 0.075853 -0.705994 -0.075853
v -0.216825 1.722850 0.104989
v 0.104989 1.722850 -0.216825
v -0.158624 1.461808 -0.480438
v -0.480438 1.461808 -0.158624
v -0.104989 1.722850 -0.216825
v 0.216825 1.722850 0.104989
v 0.480438 1.461808 -0.158624
v 0.158624 1.461808 -0.480438
v 0.216824 1.722850 -0.104989
v -0.104989 1.722850 0.216825
v 0.158626 1.461808 0.480438
v 0.480438 1.461808 0.158624
v 0.104989 1.722850 0.216825
v -0.216824 1.722850 -0.104989
v -0.480438 1.461808 0.158624
v -0.158626 1.461808 0.480440
v -0.303409 1.379943 -0.080062
v 0.303409 1.379943 -0.080062
v 0.303409 1.076534 -0.605582
v -0.303409 1.076534 -0.605582
v 0.080062 1.379943 -0.303409
v 0.080062 1.379943 0.303409
v 0.605582 1.076534 0.303409
v 0.605582 1.076534 -0.303409
v 0.303409 1.379943 0.080062
v -0.303409 1.379943 0.080062
v -0.303409 1.076534 0.605582
v 0.303409 1.076534 0.605582
v -0.080062 1.379943 0.303409
v -0.080062 1.379943 -0.303409
v -0.605582 1.076534 -0.303409
v -0.605582 1.076534 0.303409
v -0.271155 1.000682 0.157930
v 0.157930 1.000682 -0.271155
v -0.213668 0.697273 -0.642753
v -0.642753 0.697273 -0.213668
v -0.157930 1.000682 -0.271155
v 0.271155 1.000682 0.157930
v 0.642753 0.697273 -0.213668
v 0.213668 0.697273 -0.642753
v 0.271155 1.000682 -0.157930
v -0.157930 1.000682 0.271155
v 0.213668 0.697273 0.642753
v 0.642753 0.697273 0.213668
v 0.157930 1.000682 0.271155
v -0.271155 1.000682 -0.157930
v -0.642753 0.697273 0.213668
v -0.213668 0.697273 0.642753
v -0.080062 0.621420 0.303409
v -0.080062 0.621420 -0.303409
v -0.605582 0.318011 -0.303409
v -0.605582 0.318011 0.303409
v -0.303409 0.621420 -0.080062
v 0.303409 0.621420 -0.080062
v 0.303409 0.318011 -0.605582
v -0.303409 0.318011 -0.605582
v 0.080062 0.621420 -0.303409
v 0.080062 0.621420 0.303409
v 0.605582 0.318011 0.303409
v 0.605582 0.318011 -0.303409
v 0.303409 0.621420 0.080062
v -0.303409 0.621420 0.080062
v -0.303409 0.318011 0.605582
v 0.303409 0.318011 0.605582
v -0.333748 0.223196 0.202609
v 0.202609 0.223196 -0.333748
v -0.215439 -0.118139 -0.751795
v -0.751795 -0.118139 -0.215439
v -0.202609 0.223196 -0.333748
v 0.333748 0.223196 0.202609
v 0.751795 -0.118139 -0.215439
v 0.215439 -0.118139 -0.751795
v 0.333748 0.223196 -0.202609
v -0.202609 0.223196 0.333748
v 0.215440 -0.118139 0.751795
v 0.751795 -0.118139 0.215439
v 0.202609 0.223196 0.333748
v -0.333748 0.223196 -0.202609
v -0.751795 -0.118139 0.215439
v -0.215439 -0.118139 0.751795
v 0.486124 1.306579 0.275008
v 0.369912 1.306579 0.372522
v 0.272399 1.306579 0.256310
v 0.388611 1.306579 0.158795
v 0.486124 1.458284 0.275008
v 0.388611 1.458284 0.158795
v 0.272399 1.458284 0.256310
v 0.369912 1.458284 0.372522
v -0.285763 1.397849 -0.075853
v -0.285763 1.397849 0.075853
v -0.437468 1.397849 0.075853
v -0.437468 1.397849 -0.075853
v -0.285763 1.549552 -0.075853
v -0.437468 1.549552 -0.075853
v -0.437468 1.549552 0.075853
v -0.285763 1.549552 0.075853
v 0.075853 0.922361 -0.606818
v 0.075853 0.922361 -0.455114
v -0.075853 0.922361 -0.455114
v -0.075853 0.922361 -0.606818
v 0.075853 1.074065 -0.606818
v -0.075853 1.074065 -0.606818
v -0.075853 1.074065 -0.455114
v 0.075853 1.074065 -0.455114
v 0.317733 0.659346 -0.467132
v 0.467132 0.659346 -0.440790
v 0.440790 0.659346 -0.291390
v 0.291390 0.659346 -0.317733
v 0.317733 0.811052 -0.467132
v 0.291390 0.811052 -0.317733
v 0.440790 0.811052 -0.291390
v 0.467132 0.811052 -0.440790
v -0.455114 0.553638 0.227556
v -0.455114 0.553638 0.379261
v -0.606818 0.553638 0.379261
v -0.606818 0.553638 0.227556
v -0.455114 0.705343 0.227556
v -0.606818 0.705343 0.227556
v -0.606818 0.705343 0.379261
v -0.455114 0.705343 0.379261
v 0.012472 1.037923 0.227556
v 0.012472 1.037923 0.379261
v -0.139231 1.037923 0.379261
v -0.139231 1.037923 0.227556
v 0.012472 1.189628 0.227556
v -0.139231 1.189628 0.227556
v -0.139231 1.189628 0.379261
v 0.012472 1.189628 0.379261
v 0.303409 0.538889 0.530965
v 0.303409 0.538889 0.682670
v 0.151705 0.538889 0.682670
v 0.151705 0.538889 0.530965
v 0.303409 0.690593 0.530965
v 0.151705 0.690593 0.530965
v 0.151705 0.690593 0.682670
v 0.303409 0.690593 0.682670
v -0.218226 0.280085 -0.397938
v -0.218226 0.280085 -0.246234
v -0.369931 0.280085 -0.246234
v -0.369931 0.280085 -0.397938
v -0.218226 0.431790 -0.397938
v -0.369931 0.431790 -0.397938
v -0.369931 0.431790 -0.246234
v -0.218226 0.431790 -0.246234
v 0.635774 0.172021 0.111798
v 0.504395 0.172021 0.187651
v 0.428542 0.172021 0.056270
v 0.559922 0.172021 -0.019581
v 0.635774 0.323725 0.111798
v 0.559922 0.323725 -0.019581
v 0.428542 0.323725 0.056270
v 0.504395 0.323725 0.187651
v 0.464463 -0.280346 -0.507681
v 0.561977 -0.280346 -0.391470
v 0.445763 -0.280346 -0.293956
v 0.348250 -0.280346 -0.410168
v 0.464463 -0.128642 -0.507681
v 0.348250 -0.128642 -0.410168
v 0.445763 -0.128642 -0.293956
v 0.561977 -0.128642 -0.391470
v -0.458291 -0.278072 0.273619
v -0.371278 -0.278072 0.397888
v -0.495546 -0.278072 0.484902
v -0.582560 -0.278072 0.360633
v -0.458291 -0.126367 0.273619
v -0.582560 -0.126367 0.360633
v -0.495546 -0.126367 0.484902
v -0.371278 -0.126367 0.397888
v -0.186937 -0.118289 -0.295983
v -0.186937 -0.118289 -0.144280
v -0.338642 -0.118289 -0.144280
v -0.338642 -0.118289 -0.295983
v -0.186937 0.033415 -0.295983
v -0.338642 0.033415 -0.295983
v -0.338642 0.033415 -0.144280
v -0.186937 0.033415 -0.144280
v -0.053636 2.100539 -0.053636
v -0.053636 2.024687 -0.053636
v 0.053636 2.024687 0.053636
v 0.053636 2.100539 0.053636
v -0.053636 1.948834 -0.053636
v 0.053636 1.948834 0.053636
v -0.053636 1.872982 -0.053636
v 0.053636 1.872982 0.053636
v -0.107271 2.024687 -0.107271
v -0.107271 1.948834 -0.107271
v -0.107271 1.872982 -0.107271
v -0.160907 1.948834 -0.160907
v -0.160907 1.872982 -0.160907
v 0.107271 1.872982 0.107271
v 0.107271 1.948834 0.107271
v 0.107271 2.024687 0.107271
v 0.160907 1.872982 0.160907
v 0.160907 1.948834 0.160907
v -0.053636 1.721278 -0.053636
v 0.053636 1.721278 0.053636
v 0.053636 2.100539 -0.053636
v 0.053636 2.024687 -0.053636
v -0.053636 2.024687 0.053636
v -0.053636 2.100539 0.053636
v 0.053636 1.948834 -0.053636
v -0.053636 1.948834 0.053636
v 0.053636 1.872982 -0.053636
v -0.053636 1.872982 0.053636
v 0.107271 2.024687 -0.107271
v 0.107271 1.948834 -0.107271
v 0.107271 1.872982 -0.107271
v 0.160907 1.948834 -0.160907
v 0.160907 1.872982 -0.160907
v -0.107271 1.872982 0.107271
v -0.107271 1.948834 0.107271
v -0.107271 2.024687 0.107271
v -0.160907 1.872982 0.160907
v -0.160907 1.948834 0.160907
v 0.053636 1.721278 -0.053636
v -0.053636 1.721278 0.053636
vt 0.875000 0.875000
vt 1.000000 0.875000
vt 1.000000 0.937500
vt 0.875000 0.937500
vt 1.000000 0.000000
vt 1.000000 1.000000
vt 0.875000 1.000000
vt 0.875000 0.000000
vt 1.000000 0.000000
vt 1.000000 1.000000
vt 0.875000 1.000000
vt 0.875000 0.000000
vt 0.875000 0.875000
vt 1.000000 0.875000
vt 1.000000 0.937500
vt 0.875000 0.937500
vt 1.000000 -0.000000
vt 1.000000 1.000000
vt 0.875000 1.000000
vt 0.875000 -0.000000
vt 1.000000 0.000000
vt 1.000000 1.000000
vt 0.875000 1.000000
vt 0.875000 0.000000
vt 0.875000 0.750000
vt 0.500000 0.750000
vt 0.500000 0.562500
vt 0.875000 0.562500
vt 0.875000 0.750000
vt 0.500000 0.750000
vt 0.500000 0.562500
vt 0.875000 0.562500
vt 0.875000 0.750000
vt 0.500000 0.750000
vt 0.500000 0.562500
vt 0.875000 0.562500
vt 0.875000 0.750000
vt 0.500000 0.750000
vt 0.500000 0.562500
vt 0.875000 0.562500
vt 0.875000 0.562500
vt 0.375000 0.562500
vt 0.375000 0.312500
vt 0.875000 0.312500
vt 0.875000 0.562500
vt 0.375000 0.562500
vt 0.375000 0.312500
vt 0.875000 0.312500
vt 0.375000 0.312500
vt 0.875000 0.312500
vt 0.875000 0.562500
vt 0.375000 0.562500
vt 0.875000 0.562500
vt 0.375000 0.562500
vt 0.375000 0.312500
vt 0.875000 0.312500
vt 0.375000 0.312500
vt 0.875000 0.312500
vt 0.875000 0.562500
vt 0.375000 0.562500
vt 0.375000 0.312500
vt 0.875000 0.312500
vt 0.875000 0.562500
vt 0.375000 0.562500
vt 0.375000 0.312500
vt 0.875000 0.312500
vt 0.875000 0.562500
vt 0.375000 0.562500
vt 0.375000 0.312500
vt 0.875000 0.312500
vt 0.875000 0.562500
vt 0.375000 0.562500
vt 0.375000 0.312500
vt 0.875000 0.312500
vt 0.875000 0.562500
vt 0.375000 0.562500
vt 0.375000 0.312500
vt 0.875000 0.312500
vt 0.875000 0.562500
vt 0.375000 0.562500
vt 0.375000 0.312500
vt 0.875000 0.312500
vt 0.875000 0.562500
vt 0.375000 0.562500
vt 0.375000 0.312500
vt 0.875000 0.312500
vt 0.875000 0.562500
vt 0.375000 0.562500
vt 0.875000 0.312500
vt 0.250000 0.312500
vt 0.250000 0.000000
vt 0.875000 -0.000000
vt 0.875000 0.312500
vt 0.250000 0.312500
vt 0.250000 0.000000
vt 0.875000 -0.000000
vt 0.875000 0.312500
vt 0.250000 0.312500
vt 0.250000 0.000000
vt 0.875000 -0.000000
vt 0.250000 0.000000
vt 0.875000 -0.000000
vt 0.875000 0.312500
vt 0.250000 0.312500
vt 0.875000 0.812500
vt 0.875000 0.906250
vt 0.687500 0.906250
vt 0.687500 0.812500
vt 0.687500 0.906250
vt 0.687500 0.812500
vt 0.875000 0.812500
vt 0.875000 0.906250
vt 0.875000 1.000000
vt 0.875000 0.906250
vt 0.687500 0.906250
vt 0.687500 1.000000
vt 0.875000 1.000000
vt 0.687500 1.000000
vt 0.687500 0.906250
vt 0.875000 0.906250
vt 0.875000 1.000000
vt 0.687500 1.000000
vt 0.687500 0.906250
vt 0.875000 0.906250
vt 0.875000 1.000000
vt 0.687500 1.000000
vt 0.500000 0.812500
vt 0.500000 0.906250
vt 0.312500 0.906250
vt 0.312500 0.812500
vt 0.312500 0.812500
vt 0.500000 0.812500
vt 0.500000 0.906250
vt 0.312500 0.906250
vt 0.500000 1.000000
vt 0.500000 0.906250
vt 0.312500 0.906250
vt 0.312500 1.000000
vt 0.500000 1.000000
vt 0.312500 1.000000
vt 0.312500 0.906250
vt 0.500000 0.906250
vt 0.500000 1.000000
vt 0.312500 1.000000
vt 0.500000 1.000000
vt 0.500000 0.906250
vt 0.312500 0.906250
vt 0.312500 1.000000
vt 0.687500 0.906250
vt 0.500000 0.906250
vt 0.500000 0.812500
vt 0.687500 0.812500
vt 0.687500 0.812500
vt 0.687500 0.906250
vt 0.500000 0.906250
vt 0.500000 0.812500
vt 0.687500 1.000000
vt 0.687500 0.906250
vt 0.500000 1.000000
vt 0.500000 0.906250
vt 0.687500 0.906250
vt 0.687500 1.000000
vt 0.500000 1.000000
vt 0.500000 0.906250
vt 0.687500 0.906250
vt 0.687500 1.000000
vt 0.500000 1.000000
vt 0.687500 1.000000
vt 0.500000 1.000000
vt 0.312500 0.906250
vt 0.125000 0.906250
vt 0.125000 0.812500
vt 0.312500 0.812500
vt 0.312500 0.906250
vt 0.125000 0.906250
vt 0.125000 0.812500
vt 0.312500 0.812500
vt 0.125000 0.906250
vt 0.312500 0.906250
vt 0.312500 1.000000
vt 0.125000 1.000000
vt 0.312500 1.000000
vt 0.312500 0.906250
vt 0.125000 0.906250
vt 0.125000 1.000000
vt 0.312500 1.000000
vt 0.312500 0.906250
vt 0.125000 1.000000
vt 0.312500 1.000000
vt 0.125000 0.906250
vt 0.125000 1.000000
vt 0.875000 0.812500
vt 0.875000 0.906250
vt 0.687500 0.906250
vt 0.687500 0.812500
vt 0.687500 0.812500
vt 0.875000 0.812500
vt 0.875000 0.906250
vt 0.687500 0.906250
vt 0.687500 0.906250
vt 0.875000 0.906250
vt 0.875000 1.000000
vt 0.687500 1.000000
vt 0.875000 1.000000
vt 0.687500 1.000000
vt 0.687500 0.906250
vt 0.875000 0.906250
vt 0.875000 1.000000
vt 0.687500 1.000000
vt 0.687500 0.906250
vt 0.875000 0.906250
vt 0.875000 1.000000
vt 0.687500 1.000000
vt 0.125000 0.906250
vt 0.125000 0.812500
vt 0.312500 0.812500
vt 0.312500 0.906250
vt 0.125000 0.906250
vt 0.125000 0.812500
vt 0.312500 0.812500
vt 0.312500 0.906250
vt 0.312500 1.000000
vt 0.312500 0.906250
vt 0.125000 0.906250
vt 0.125000 1.000000
vt 0.125000 0.906250
vt 0.312500 0.906250
vt 0.312500 1.000000
vt 0.125000 1.000000
vt 0.312500 1.000000
vt 0.125000 1.000000
vt 0.125000 0.906250
vt 0.312500 0.906250
vt 0.312500 1.000000
vt 0.125000 1.000000
vt 0.500000 0.906250
vt 0.500000 0.812500
vt 0.687500 0.812500
vt 0.687500 0.906250
vt 0.687500 0.906250
vt 0.500000 0.906250
vt 0.500000 0.812500
vt 0.687500 0.812500
vt 0.500000 0.906250
vt 0.687500 0.906250
vt 0.687500 1.000000
vt 0.500000 1.000000
vt 0.500000 0.906250
vt 0.687500 0.906250
vt 0.687500 1.000000
vt 0.500000 1.000000
vt 0.687500 1.000000
vt 0.500000 1.000000
vt 0.500000 0.906250
vt 0.687500 0.906250
vt 0.687500 1.000000
vt 0.500000 1.000000
vt 0.312500 0.906250
vt 0.312500 0.812500
vt 0.500000 0.812500
vt 0.500000 0.906250
vt 0.312500 0.906250
vt 0.312500 0.812500
vt 0.500000 0.812500
vt 0.500000 0.906250
vt 0.312500 0.906250
vt 0.500000 0.906250
vt 0.500000 1.000000
vt 0.312500 1.000000
vt 0.500000 1.000000
vt 0.500000 0.906250
vt 0.312500 0.906250
vt 0.312500 1.000000
vt 0.500000 1.000000
vt 0.312500 0.906250
vt 0.312500 1.000000
vt 0.500000 1.000000
vt 0.500000 0.906250
vt 0.312500 1.000000
vt 0.312500 0.812500
vt 0.500000 0.812500
vt 0.500000 0.906250
vt 0.312500 0.906250
vt 0.312500 0.812500
vt 0.500000 0.812500
vt 0.500000 0.906250
vt 0.312500 0.906250
vt 0.500000 1.000000
vt 0.312500 0.906250
vt 0.312500 1.000000
vt 0.312500 0.906250
vt 0.500000 0.906250
vt 0.500000 1.000000
vt 0.312500 1.000000
vt 0.312500 0.906250
vt 0.500000 0.906250
vt 0.500000 1.000000
vt 0.312500 1.000000
vt 0.312500 0.906250
vt 0.500000 0.906250
vt 0.500000 1.000000
vt 0.312500 1.000000
vt 0.687500 0.906250
vt 0.687500 0.812500
vt 0.875000 0.812500
vt 0.875000 0.906250
vt 0.875000 0.812500
vt 0.875000 0.906250
vt 0.687500 0.906250
vt 0.687500 0.812500
vt 0.875000 1.000000
vt 0.875000 0.906250
vt 0.687500 1.000000
vt 0.687500 0.906250
vt 0.875000 0.906250
vt 0.875000 1.000000
vt 0.687500 1.000000
vt 0.875000 1.000000
vt 0.687500 0.906250
vt 0.687500 1.000000
vt 0.875000 1.000000
vt 0.875000 0.906250
vt 0.687500 0.906250
vt 0.687500 1.000000
vt 0.125000 0.812500
vt 0.312500 0.812500
vt 0.312500 0.906250
vt 0.125000 0.906250
vt 0.125000 0.906250
vt 0.125000 0.812500
vt 0.312500 0.812500
vt 0.312500 0.906250
vt 0.312500 1.000000
vt 0.125000 0.906250
vt 0.125000 1.000000
vt 0.125000 0.906250
vt 0.312500 0.906250
vt 0.312500 1.000000
vt 0.125000 1.000000
vt 0.125000 0.906250
vt 0.312500 0.906250
vt 0.312500 1.000000
vt 0.125000 1.000000
vt 0.312500 1.000000
vt 0.312500 0.906250
vt 0.125000 1.000000
vt 0.500000 0.906250
vt 0.500000 0.812500
vt 0.687500 0.812500
vt 0.687500 0.906250
vt 0.500000 0.906250
vt 0.500000 0.812500
vt 0.687500 0.812500
vt 0.687500 0.906250
vt 0.500000 0.906250
vt 0.687500 0.906250
vt 0.687500 1.000000
vt 0.500000 1.000000
vt 0.500000 0.906250
vt 0.687500 0.906250
vt 0.687500 1.000000
vt 0.500000 1.000000
vt 0.687500 1.000000
vt 0.500000 1.000000
vt 0.500000 0.906250
vt 0.687500 0.906250
vt 0.687500 1.000000
vt 0.500000 1.000000
vt 0.377083 0.657475
vt 0.377083 0.626492
vt 0.252175 0.626492
vt 0.252175 0.657475
vt 0.377083 0.595509
vt 0.252175 0.595509
vt 0.377083 0.564526
vt 0.252175 0.564526
vt 0.439537 0.626492
vt 0.439537 0.595509
vt 0.439537 0.564526
vt 0.501991 0.595509
vt 0.501991 0.564526
vt 0.189721 0.564526
vt 0.189721 0.595509
vt 0.189721 0.626492
vt 0.127267 0.564526
vt 0.127267 0.595509
vt 0.377083 0.502560
vt 0.252175 0.502560
vt 0.377083 0.657475
vt 0.377083 0.626492
vt 0.252175 0.626492
vt 0.252175 0.657475
vt 0.377083 0.595509
vt 0.252175 0.595509
vt 0.377083 0.564526
vt 0.252175 0.564526
vt 0.439537 0.626492
vt 0.439537 0.595509
vt 0.439537 0.564526
vt 0.501991 0.595509
vt 0.501991 0.564526
vt 0.189721 0.564526
vt 0.189721 0.595509
vt 0.189721 0.626492
vt 0.127267 0.564526
vt 0.127267 0.595509
vt 0.377083 0.502560
vt 0.252175 0.502560
vn 0.0000 1.0000 0.0000
vn 0.0000 -0.0000 1.0000
vn -1.0000 0.0000 0.0000
vn 0.0000 -1.0000 0.0000
vn 1.0000 0.0000 0.0000
vn 0.0000 0.0000 -1.0000
vn -0.4056 0.8192 -0.4056
vn 0.4056 0.8192 -0.4056
vn 0.4056 0.8192 0.4056
vn -0.4056 0.8192 0.4056
vn 0.0000 0.8660 -0.5000
vn 0.5000 0.8660 0.0000
vn 0.0000 0.8660 0.5000
vn -0.5000 0.8660 0.0000
vn -0.3536 0.8660 -0.3536
vn 0.3536 0.8660 -0.3536
vn 0.3536 0.8660 0.3536
vn -0.3536 0.8660 0.3536
vn -0.6428 0.0000 -0.7660
vn -0.7660 0.0000 0.6428
vn 0.7660 0.0000 -0.6428
vn 0.6428 0.0000 0.7660
vn -0.1736 0.0000 0.9848
vn 0.9848 0.0000 0.1736
vn -0.9848 0.0000 -0.1736
vn 0.1736 0.0000 -0.9848
vn -0.5000 0.0000 -0.8660
vn -0.8660 -0.0000 0.5000
vn 0.8660 0.0000 -0.5000
vn 0.5000 0.0000 0.8660
vn -0.8192 0.0000 0.5736
vn 0.5736 0.0000 0.8192
vn -0.5736 0.0000 -0.8192
vn 0.8192 0.0000 -0.5736
vn -0.7071 -0.0000 0.7071
vn -0.7071 0.0000 -0.7071
usemtl Material.001
s 1
f 1/1/1 2/2/1 3/3/1 4/4/1
f 5/5/2 4/6/2 3/7/2 6/8/2
f 6/9/3 3/10/3 2/11/3 7/12/3
f 7/13/4 8/14/4 5/15/4 6/16/4
f 8/17/5 1/18/5 4/19/5 5/20/5
f 7/21/6 2/22/6 1/23/6 8/24/6
f 9/25/7 10/26/7 11/27/7 12/28/7
f 13/29/8 14/30/8 15/31/8 16/32/8
f 17/33/9 18/34/9 19/35/9 20/36/9
f 21/37/10 22/38/10 23/39/10 24/40/10
f 25/41/11 26/42/11 27/43/11 28/44/11
f 29/45/12 30/46/12 31/47/12 32/48/12
f 33/49/13 34/50/13 35/51/13 36/52/13
f 37/53/14 38/54/14 39/55/14 40/56/14
f 41/57/15 42/58/15 43/59/15 44/60/15
f 45/61/16 46/62/16 47/63/16 48/64/16
f 49/65/17 50/66/17 51/67/17 52/68/17
f 53/69/18 54/70/18 55/71/18 56/72/18
f 57/73/14 58/74/14 59/75/14 60/76/14
f 61/77/11 62/78/11 63/79/11 64/80/11
f 65/81/12 66/82/12 67/83/12 68/84/12
f 69/85/13 70/86/13 71/87/13 72/88/13
f 73/89/15 74/90/15 75/91/15 76/92/15
f 77/93/16 78/94/16 79/95/16 80/96/16
f 81/97/17 82/98/17 83/99/17 84/100/17
f 85/101/18 86/102/18 87/103/18 88/104/18
f 89/105/4 90/106/4 91/107/4 92/108/4
f 93/109/1 94/110/1 95/111/1 96/112/1
f 92/113/19 91/114/19 95/115/19 94/116/19
f 91/107/20 90/106/20 96/117/20 95/118/20
f 89/119/21 92/120/21 94/121/21 93/122/21
f 90/123/22 89/124/22 93/125/22 96/126/22
f 97/127/4 98/128/4 99/129/4 100/130/4
f 101/131/1 102/132/1 103/133/1 104/134/1
f 100/135/3 99/136/3 103/137/3 102/138/3
f 99/129/2 98/128/2 104/139/2 103/140/2
f 97/141/6 100/142/6 102/143/6 101/144/6
f 98/145/5 97/146/5 101/147/5 104/148/5
f 105/149/4 106/150/4 107/151/4 108/152/4
f 109/153/1 110/154/1 111/155/1 112/156/1
f 108/157/3 107/158/3 111/155/3 110/159/3
f 107/160/2 106/161/2 112/162/2 111/163/2
f 105/164/6 108/165/6 110/166/6 109/167/6
f 106/150/5 105/149/5 109/168/5 112/169/5
f 113/170/4 114/171/4 115/172/4 116/173/4
f 117/174/1 118/175/1 119/176/1 120/177/1
f 116/178/23 115/179/23 119/180/23 118/181/23
f 115/182/24 114/183/24 120/184/24 119/185/24
f 113/186/25 116/187/25 118/175/25 117/188/25
f 114/189/26 113/170/26 117/190/26 120/191/26
f 121/192/4 122/193/4 123/194/4 124/195/4
f 125/196/1 126/197/1 127/198/1 128/199/1
f 124/200/3 123/201/3 127/202/3 126/203/3
f 123/194/2 122/193/2 128/204/2 127/205/2
f 121/206/6 124/207/6 126/208/6 125/209/6
f 122/210/5 121/211/5 125/212/5 128/213/5
f 129/214/4 130/215/4 131/216/4 132/217/4
f 133/218/1 134/219/1 135/220/1 136/221/1
f 132/222/3 131/223/3 135/224/3 134/225/3
f 131/226/2 130/227/2 136/228/2 135/229/2
f 129/214/6 132/217/6 134/230/6 133/231/6
f 130/232/5 129/233/5 133/234/5 136/235/5
f 137/236/4 138/237/4 139/238/4 140/239/4
f 141/240/1 142/241/1 143/242/1 144/243/1
f 140/244/3 139/245/3 143/246/3 142/247/3
f 139/248/2 138/249/2 144/250/2 143/251/2
f 137/236/6 140/239/6 142/252/6 141/253/6
f 138/254/5 137/255/5 141/256/5 144/257/5
f 145/258/4 146/259/4 147/260/4 148/261/4
f 149/262/1 150/263/1 151/264/1 152/265/1
f 148/266/3 147/267/3 151/268/3 150/269/3
f 147/270/2 146/271/2 152/272/2 151/273/2
f 145/274/6 148/261/6 150/275/6 149/276/6
f 146/277/5 145/278/5 149/262/5 152/279/5
f 153/280/4 154/281/4 155/282/4 156/283/4
f 157/284/1 158/285/1 159/286/1 160/287/1
f 156/288/27 155/282/27 159/289/27 158/290/27
f 155/291/28 154/292/28 160/293/28 159/294/28
f 153/295/29 156/296/29 158/297/29 157/298/29
f 154/299/30 153/300/30 157/301/30 160/302/30
f 161/303/4 162/304/4 163/305/4 164/306/4
f 165/307/1 166/308/1 167/309/1 168/310/1
f 164/311/20 163/312/20 167/309/20 166/313/20
f 163/314/22 162/315/22 168/316/22 167/317/22
f 161/318/19 164/306/19 166/319/19 165/320/19
f 162/321/21 161/322/21 165/323/21 168/324/21
f 169/325/4 170/326/4 171/327/4 172/328/4
f 173/329/1 174/330/1 175/331/1 176/332/1
f 172/333/31 171/327/31 175/334/31 174/335/31
f 171/336/32 170/337/32 176/338/32 175/339/32
f 169/340/33 172/341/33 174/342/33 173/343/33
f 170/344/34 169/345/34 173/329/34 176/346/34
f 177/347/4 178/348/4 179/349/4 180/350/4
f 181/351/1 182/352/1 183/353/1 184/354/1
f 180/355/3 179/356/3 183/357/3 182/358/3
f 179/359/2 178/360/2 184/361/2 183/362/2
f 177/347/6 180/350/6 182/363/6 181/364/6
f 178/365/5 177/366/5 181/367/5 184/368/5
f 185/369/35 186/370/35 187/371/35 188/372/35
f 186/370/35 189/373/35 190/374/35 187/371/35
f 189/373/35 191/375/35 192/376/35 190/374/35
f 189/373/35 186/370/35 193/377/35 194/378/35
f 191/375/35 189/373/35 194/378/35 195/379/35
f 195/379/35 194/378/35 196/380/35 197/381/35
f 190/374/35 192/376/35 198/382/35 199/383/35
f 187/371/35 190/374/35 199/383/35 200/384/35
f 199/383/35 198/382/35 201/385/35 202/386/35
f 191/375/35 203/387/35 204/388/35 192/376/35
f 205/389/36 206/390/36 207/391/36 208/392/36
f 206/390/36 209/393/36 210/394/36 207/391/36
f 209/393/36 211/395/36 212/396/36 210/394/36
f 209/393/36 206/390/36 213/397/36 214/398/36
f 211/395/36 209/393/36 214/398/36 215/399/36
f 215/399/36 214/398/36 216/400/36 217/401/36
f 210/394/36 212/396/36 218/402/36 219/403/36
f 207/391/36 210/394/36 219/403/36 220/404/36
f 219/403/36 218/402/36 221/405/36 222/406/36
f 211/395/36 223/407/36 224/408/36 212/396/36
