# Made in Blockbench 4.12.1
mtllib metallophon.mtl

o cube
v 0.5 0.5 0.375
v 0.5 0.5 -0.3125
v 0.5 -0.5 0.375
v 0.5 -0.5 -0.3125
v -0.5 0.5 -0.3125
v -0.5 0.5 0.375
v -0.5 -0.5 -0.3125
v -0.5 -0.5 0.375
vt 0 1
vt 0.42105263157894735 1
vt 0.42105263157894735 0.5
vt 0 0.5
vt 0.42105263157894735 1
vt 0.7105263157894737 1
vt 0.7105263157894737 0.5
vt 0.42105263157894735 0.5
vt 0 1
vt 0.42105263157894735 1
vt 0.42105263157894735 0.5
vt 0 0.5
vt 0.7105263157894737 1
vt 0.42105263157894735 1
vt 0.42105263157894735 0.5
vt 0.7105263157894737 0.5
vt 1 1
vt 1 0.5
vt 0.7105263157894737 0.5
vt 0.7105263157894737 1
vt 0.42105263157894735 0.5
vt 0.42105263157894735 0
vt 0.7105263157894737 0
vt 0.7105263157894737 0.5
vn 0 0 -1
vn 1 0 0
vn 0 0 1
vn -1 0 0
vn 0 1 0
vn 0 -1 0
usemtl m_d3850af9-3f5a-2c88-89a7-19a94ca132a2
f 4/4/1 7/3/1 5/2/1 2/1/1
f 3/8/2 4/7/2 2/6/2 1/5/2
f 8/12/3 3/11/3 1/10/3 6/9/3
f 7/16/4 8/15/4 6/14/4 5/13/4
f 6/20/5 1/19/5 2/18/5 5/17/5
f 7/24/6 4/23/6 3/22/6 8/21/6
o cube
v 0.4375 0.4375 -0.3125
v 0.4375 0.4375 -0.375
v 0.4375 0.1875 -0.3125
v 0.4375 0.1875 -0.375
v -0.4375 0.4375 -0.375
v -0.4375 0.4375 -0.3125
v -0.4375 0.1875 -0.375
v -0.4375 0.1875 -0.3125
vt 0 0.46875
vt 0.3684210526315789 0.46875
vt 0.3684210526315789 0.34375
vt 0 0.34375
vt 0 0.46875
vt 0.02631578947368421 0.46875
vt 0.02631578947368421 0.34375
vt 0 0.34375
vt 0.34210526315789475 0.46875
vt 0.3684210526315789 0.46875
vt 0.3684210526315789 0.34375
vt 0.34210526315789475 0.34375
vt 0 0.46875
vt 0.3684210526315789 0.46875
vt 0.3684210526315789 0.4375
vt 0 0.4375
vn 0 0 -1
vn 1 0 0
vn -1 0 0
vn 0 1 0
usemtl m_d3850af9-3f5a-2c88-89a7-19a94ca132a2
f 12/28/7 15/27/7 13/26/7 10/25/7
f 11/32/8 12/31/8 10/30/8 9/29/8
f 15/36/9 16/35/9 14/34/9 13/33/9
f 14/40/10 9/39/10 10/38/10 13/37/10
o cube
v 0.3125 0.375 -0.375
v 0.3125 0.375 -0.4375
v 0.3125 -0.3125 -0.375
v 0.3125 -0.3125 -0.4375
v 0.1875 0.375 -0.4375
v 0.1875 0.375 -0.375
v 0.1875 -0.3125 -0.4375
v 0.1875 -0.3125 -0.375
vt 0.7368421052631579 0.5
vt 0.7894736842105263 0.5
vt 0.7894736842105263 0.15625
vt 0.7368421052631579 0.15625
vt 0.7631578947368421 0.5
vt 0.7894736842105263 0.5
vt 0.7894736842105263 0.15625
vt 0.7631578947368421 0.15625
vt 0.7368421052631579 0.5
vt 0.7894736842105263 0.5
vt 0.7894736842105263 0.15625
vt 0.7368421052631579 0.15625
vt 0.7631578947368421 0.5
vt 0.7894736842105263 0.5
vt 0.7894736842105263 0.15625
vt 0.7631578947368421 0.15625
vt 0.7894736842105263 0.46875
vt 0.7368421052631579 0.46875
vt 0.7368421052631579 0.5
vt 0.7894736842105263 0.5
vt 0.7894736842105263 0.1875
vt 0.7368421052631579 0.1875
vt 0.7368421052631579 0.15625
vt 0.7894736842105263 0.15625
vn 0 0 -1
vn 1 0 0
vn 0 0 1
vn -1 0 0
vn 0 1 0
vn 0 -1 0
usemtl m_d3850af9-3f5a-2c88-89a7-19a94ca132a2
f 20/44/11 23/43/11 21/42/11 18/41/11
f 19/48/12 20/47/12 18/46/12 17/45/12
f 24/52/13 19/51/13 17/50/13 22/49/13
f 23/56/14 24/55/14 22/54/14 21/53/14
f 22/60/15 17/59/15 18/58/15 21/57/15
f 23/64/16 20/63/16 19/62/16 24/61/16
o cube
v 0.125 0.3125 -0.375
v 0.125 0.3125 -0.4375
v 0.125 -0.25 -0.375
v 0.125 -0.25 -0.4375
v 0 0.3125 -0.4375
v 0 0.3125 -0.375
v 0 -0.25 -0.4375
v 0 -0.25 -0.375
vt 0.7368421052631579 0.40625
vt 0.7894736842105263 0.40625
vt 0.7894736842105263 0.125
vt 0.7368421052631579 0.125
vt 0.7631578947368421 0.40625
vt 0.7894736842105263 0.40625
vt 0.7894736842105263 0.125
vt 0.7631578947368421 0.125
vt 0.7368421052631579 0.40625
vt 0.7894736842105263 0.40625
vt 0.7894736842105263 0.125
vt 0.7368421052631579 0.125
vt 0.7631578947368421 0.40625
vt 0.7894736842105263 0.40625
vt 0.7894736842105263 0.125
vt 0.7631578947368421 0.125
vt 0.7894736842105263 0.375
vt 0.7368421052631579 0.375
vt 0.7368421052631579 0.40625
vt 0.7894736842105263 0.40625
vt 0.7894736842105263 0.15625
vt 0.7368421052631579 0.15625
vt 0.7368421052631579 0.125
vt 0.7894736842105263 0.125
vn 0 0 -1
vn 1 0 0
vn 0 0 1
vn -1 0 0
vn 0 1 0
vn 0 -1 0
usemtl m_d3850af9-3f5a-2c88-89a7-19a94ca132a2
f 28/68/17 31/67/17 29/66/17 26/65/17
f 27/72/18 28/71/18 26/70/18 25/69/18
f 32/76/19 27/75/19 25/74/19 30/73/19
f 31/80/20 32/79/20 30/78/20 29/77/20
f 30/84/21 25/83/21 26/82/21 29/81/21
f 31/88/22 28/87/22 27/86/22 32/85/22
o cube
v -0.0625 0.25 -0.375
v -0.0625 0.25 -0.4375
v -0.0625 -0.1875 -0.375
v -0.0625 -0.1875 -0.4375
v -0.1875 0.25 -0.4375
v -0.1875 0.25 -0.375
v -0.1875 -0.1875 -0.4375
v -0.1875 -0.1875 -0.375
vt 0.7368421052631579 0.5
vt 0.7894736842105263 0.5
vt 0.7894736842105263 0.28125
vt 0.7368421052631579 0.28125
vt 0.7631578947368421 0.5
vt 0.7894736842105263 0.5
vt 0.7894736842105263 0.28125
vt 0.7631578947368421 0.28125
vt 0.7368421052631579 0.5
vt 0.7894736842105263 0.5
vt 0.7894736842105263 0.28125
vt 0.7368421052631579 0.28125
vt 0.7631578947368421 0.5
vt 0.7894736842105263 0.5
vt 0.7894736842105263 0.28125
vt 0.7631578947368421 0.28125
vt 0.7894736842105263 0.46875
vt 0.7368421052631579 0.46875
vt 0.7368421052631579 0.5
vt 0.7894736842105263 0.5
vt 0.7894736842105263 0.5
vt 0.7368421052631579 0.5
vt 0.7368421052631579 0.46875
vt 0.7894736842105263 0.46875
vn 0 0 -1
vn 1 0 0
vn 0 0 1
vn -1 0 0
vn 0 1 0
vn 0 -1 0
usemtl m_d3850af9-3f5a-2c88-89a7-19a94ca132a2
f 36/92/23 39/91/23 37/90/23 34/89/23
f 35/96/24 36/95/24 34/94/24 33/93/24
f 40/100/25 35/99/25 33/98/25 38/97/25
f 39/104/26 40/103/26 38/102/26 37/101/26
f 38/108/27 33/107/27 34/106/27 37/105/27
f 39/112/28 36/111/28 35/110/28 40/109/28
o cube
v -0.25 0.1875 -0.375
v -0.25 0.1875 -0.4375
v -0.25 -0.125 -0.375
v -0.25 -0.125 -0.4375
v -0.375 0.1875 -0.4375
v -0.375 0.1875 -0.375
v -0.375 -0.125 -0.4375
v -0.375 -0.125 -0.375
vt 0.7368421052631579 0.34375
vt 0.7894736842105263 0.34375
vt 0.7894736842105263 0.1875
vt 0.7368421052631579 0.1875
vt 0.7631578947368421 0.34375
vt 0.7894736842105263 0.34375
vt 0.7894736842105263 0.1875
vt 0.7631578947368421 0.1875
vt 0.7368421052631579 0.34375
vt 0.7894736842105263 0.34375
vt 0.7894736842105263 0.1875
vt 0.7368421052631579 0.1875
vt 0.7631578947368421 0.34375
vt 0.7894736842105263 0.34375
vt 0.7894736842105263 0.1875
vt 0.7631578947368421 0.1875
vt 0.7894736842105263 0.3125
vt 0.7368421052631579 0.3125
vt 0.7368421052631579 0.34375
vt 0.7894736842105263 0.34375
vt 0.7894736842105263 0.21875
vt 0.7368421052631579 0.21875
vt 0.7368421052631579 0.1875
vt 0.7894736842105263 0.1875
vn 0 0 -1
vn 1 0 0
vn 0 0 1
vn -1 0 0
vn 0 1 0
vn 0 -1 0
usemtl m_d3850af9-3f5a-2c88-89a7-19a94ca132a2
f 44/116/29 47/115/29 45/114/29 42/113/29
f 43/120/30 44/119/30 42/118/30 41/117/30
f 48/124/31 43/123/31 41/122/31 46/121/31
f 47/128/32 48/127/32 46/126/32 45/125/32
f 46/132/33 41/131/33 42/130/33 45/129/33
f 47/136/34 44/135/34 43/134/34 48/133/34
o cube
v 0.4375 0.1875 -0.3125
v 0.4375 0.1875 -0.375
v 0.4375 0.125 -0.3125
v 0.4375 0.125 -0.375
v -0.4375 0.1875 -0.375
v -0.4375 0.1875 -0.3125
v -0.4375 0.125 -0.375
v -0.4375 0.125 -0.3125
vt 0.7368421052631579 0.5
vt 0.7631578947368421 0.5
vt 0.7631578947368421 0.46875
vt 0.7368421052631579 0.46875
vt 0.7368421052631579 0.5
vt 0.7631578947368421 0.5
vt 0.7631578947368421 0.46875
vt 0.7368421052631579 0.46875
vt 0.7368421052631579 0.5
vt 0.7631578947368421 0.5
vt 0.7631578947368421 0.46875
vt 0.7368421052631579 0.46875
vt 0.7368421052631579 0.5
vt 0.7631578947368421 0.5
vt 0.7631578947368421 0.46875
vt 0.7368421052631579 0.46875
vn 0 0 -1
vn 1 0 0
vn -1 0 0
vn 0 -1 0
usemtl m_d3850af9-3f5a-2c88-89a7-19a94ca132a2
f 52/140/35 55/139/35 53/138/35 50/137/35
f 51/144/36 52/143/36 50/142/36 49/141/36
f 55/148/37 56/147/37 54/146/37 53/145/37
f 55/152/38 52/151/38 51/150/38 56/149/38
o cube
v 0.4375 -0.0625 -0.3125
v 0.4375 -0.0625 -0.375
v 0.4375 -0.125 -0.3125
v 0.4375 -0.125 -0.375
v -0.4375 -0.0625 -0.375
v -0.4375 -0.0625 -0.3125
v -0.4375 -0.125 -0.375
v -0.4375 -0.125 -0.3125
vt 0.7368421052631579 0.5
vt 0.7631578947368421 0.5
vt 0.7631578947368421 0.46875
vt 0.7368421052631579 0.46875
vt 0.7368421052631579 0.5
vt 0.7631578947368421 0.5
vt 0.7631578947368421 0.46875
vt 0.7368421052631579 0.46875
vt 0.7368421052631579 0.5
vt 0.7631578947368421 0.5
vt 0.7631578947368421 0.46875
vt 0.7368421052631579 0.46875
vt 0.7368421052631579 0.5
vt 0.7631578947368421 0.5
vt 0.7631578947368421 0.46875
vt 0.7368421052631579 0.46875
vn 0 0 -1
vn 1 0 0
vn -1 0 0
vn 0 1 0
usemtl m_d3850af9-3f5a-2c88-89a7-19a94ca132a2
f 60/156/39 63/155/39 61/154/39 58/153/39
f 59/160/40 60/159/40 58/158/40 57/157/40
f 63/164/41 64/163/41 62/162/41 61/161/41
f 62/168/42 57/167/42 58/166/42 61/165/42
o cube
v 0.4375 -0.125 0.4375
v 0.4375 -0.125 0.375
v 0.4375 -0.375 0.4375
v 0.4375 -0.375 0.375
v -0.4375 -0.125 0.375
v -0.4375 -0.125 0.4375
v -0.4375 -0.375 0.375
v -0.4375 -0.375 0.4375
vt 0 0.5
vt 0.02631578947368421 0.5
vt 0.02631578947368421 0.375
vt 0 0.375
vt 0 0.15625
vt 0.3684210526315789 0.15625
vt 0.3684210526315789 0.03125
vt 0 0.03125
vt 0 0.5
vt 0.02631578947368421 0.5
vt 0.02631578947368421 0.375
vt 0 0.375
vt 0.3684210526315789 0.0625
vt 0 0.0625
vt 0 0.03125
vt 0.3684210526315789 0.03125
vn 1 0 0
vn 0 0 1
vn -1 0 0
vn 0 -1 0
usemtl m_d3850af9-3f5a-2c88-89a7-19a94ca132a2
f 67/172/43 68/171/43 66/170/43 65/169/43
f 72/176/44 67/175/44 65/174/44 70/173/44
f 71/180/45 72/179/45 70/178/45 69/177/45
f 71/184/46 68/183/46 67/182/46 72/181/46
o cube
v 0.4375 -0.0625 0.4375
v 0.4375 -0.0625 0.375
v 0.4375 -0.125 0.4375
v 0.4375 -0.125 0.375
v -0.4375 -0.0625 0.375
v -0.4375 -0.0625 0.4375
v -0.4375 -0.125 0.375
v -0.4375 -0.125 0.4375
vt 0.7368421052631579 0.5
vt 0.7631578947368421 0.5
vt 0.7631578947368421 0.46875
vt 0.7368421052631579 0.46875
vt 0.7368421052631579 0.5
vt 0.7631578947368421 0.5
vt 0.7631578947368421 0.46875
vt 0.7368421052631579 0.46875
vt 0.7368421052631579 0.5
vt 0.7631578947368421 0.5
vt 0.7631578947368421 0.46875
vt 0.7368421052631579 0.46875
vt 0.7368421052631579 0.5
vt 0.7631578947368421 0.5
vt 0.7631578947368421 0.46875
vt 0.7368421052631579 0.46875
vn 1 0 0
vn 0 0 1
vn -1 0 0
vn 0 1 0
usemtl m_d3850af9-3f5a-2c88-89a7-19a94ca132a2
f 75/188/47 76/187/47 74/186/47 73/185/47
f 80/192/48 75/191/48 73/190/48 78/189/48
f 79/196/49 80/195/49 78/194/49 77/193/49
f 78/200/50 73/199/50 74/198/50 77/197/50
o cube
v 0.375 0.18750000000000022 0.5
v 0.375 0.18750000000000022 0.4375
v 0.375 -0.12499999999999983 0.5
v 0.375 -0.12499999999999983 0.4375
v 0.25 0.18750000000000022 0.4375
v 0.25 0.18750000000000022 0.5
v 0.25 -0.12499999999999983 0.4375
v 0.25 -0.12499999999999983 0.5
vt 0.7894736842105263 0.34375
vt 0.7368421052631579 0.34375
vt 0.7368421052631579 0.1875
vt 0.7894736842105263 0.1875
vt 0.7631578947368421 0.34375
vt 0.7894736842105263 0.34375
vt 0.7894736842105263 0.1875
vt 0.7631578947368421 0.1875
vt 0.7368421052631579 0.34375
vt 0.7894736842105263 0.34375
vt 0.7894736842105263 0.1875
vt 0.7368421052631579 0.1875
vt 0.7368421052631579 0.34375
vt 0.7631578947368421 0.34375
vt 0.7631578947368421 0.1875
vt 0.7368421052631579 0.1875
vt 0.7894736842105263 0.3125
vt 0.7368421052631579 0.3125
vt 0.7368421052631579 0.34375
vt 0.7894736842105263 0.34375
vt 0.7894736842105263 0.21875
vt 0.7368421052631579 0.21875
vt 0.7368421052631579 0.1875
vt 0.7894736842105263 0.1875
vn 0 0 -1
vn 1 0 0
vn 0 0 1
vn -1 0 0
vn 0 1 0
vn 0 -1 0
usemtl m_d3850af9-3f5a-2c88-89a7-19a94ca132a2
f 84/204/51 87/203/51 85/202/51 82/201/51
f 83/208/52 84/207/52 82/206/52 81/205/52
f 88/212/53 83/211/53 81/210/53 86/209/53
f 87/216/54 88/215/54 86/214/54 85/213/54
f 86/220/55 81/219/55 82/218/55 85/217/55
f 87/224/56 84/223/56 83/222/56 88/221/56
o cube
v 0.1875 0.25 0.5
v 0.1875 0.25 0.4375
v 0.1875 -0.1875 0.5
v 0.1875 -0.1875 0.4375
v 0.0625 0.25 0.4375
v 0.0625 0.25 0.5
v 0.0625 -0.1875 0.4375
v 0.0625 -0.1875 0.5
vt 0.7368421052631579 0.5
vt 0.7894736842105263 0.5
vt 0.7894736842105263 0.28125
vt 0.7368421052631579 0.28125
vt 0.7631578947368421 0.5
vt 0.7894736842105263 0.5
vt 0.7894736842105263 0.28125
vt 0.7631578947368421 0.28125
vt 0.7368421052631579 0.5
vt 0.7894736842105263 0.5
vt 0.7894736842105263 0.28125
vt 0.7368421052631579 0.28125
vt 0.7631578947368421 0.5
vt 0.7894736842105263 0.5
vt 0.7894736842105263 0.28125
vt 0.7631578947368421 0.28125
vt 0.7894736842105263 0.46875
vt 0.7368421052631579 0.46875
vt 0.7368421052631579 0.5
vt 0.7894736842105263 0.5
vt 0.7894736842105263 0.3125
vt 0.7368421052631579 0.3125
vt 0.7368421052631579 0.28125
vt 0.7894736842105263 0.28125
vn 0 0 -1
vn 1 0 0
vn 0 0 1
vn -1 0 0
vn 0 1 0
vn 0 -1 0
usemtl m_d3850af9-3f5a-2c88-89a7-19a94ca132a2
f 92/228/57 95/227/57 93/226/57 90/225/57
f 91/232/58 92/231/58 90/230/58 89/229/58
f 96/236/59 91/235/59 89/234/59 94/233/59
f 95/240/60 96/239/60 94/238/60 93/237/60
f 94/244/61 89/243/61 90/242/61 93/241/61
f 95/248/62 92/247/62 91/246/62 96/245/62
o cube
v 0 0.3125 0.5
v 0 0.3125 0.4375
v 0 -0.25 0.5
v 0 -0.25 0.4375
v -0.125 0.3125 0.4375
v -0.125 0.3125 0.5
v -0.125 -0.25 0.4375
v -0.125 -0.25 0.5
vt 0.7368421052631579 0.40625
vt 0.7894736842105263 0.40625
vt 0.7894736842105263 0.125
vt 0.7368421052631579 0.125
vt 0.7631578947368421 0.40625
vt 0.7894736842105263 0.40625
vt 0.7894736842105263 0.125
vt 0.7631578947368421 0.125
vt 0.7368421052631579 0.40625
vt 0.7894736842105263 0.40625
vt 0.7894736842105263 0.125
vt 0.7368421052631579 0.125
vt 0.7631578947368421 0.40625
vt 0.7894736842105263 0.40625
vt 0.7894736842105263 0.125
vt 0.7631578947368421 0.125
vt 0.7894736842105263 0.375
vt 0.7368421052631579 0.375
vt 0.7368421052631579 0.40625
vt 0.7894736842105263 0.40625
vt 0.7894736842105263 0.15625
vt 0.7368421052631579 0.15625
vt 0.7368421052631579 0.125
vt 0.7894736842105263 0.125
vn 0 0 -1
vn 1 0 0
vn 0 0 1
vn -1 0 0
vn 0 1 0
vn 0 -1 0
usemtl m_d3850af9-3f5a-2c88-89a7-19a94ca132a2
f 100/252/63 103/251/63 101/250/63 98/249/63
f 99/256/64 100/255/64 98/254/64 97/253/64
f 104/260/65 99/259/65 97/258/65 102/257/65
f 103/264/66 104/263/66 102/262/66 101/261/66
f 102/268/67 97/267/67 98/266/67 101/265/67
f 103/272/68 100/271/68 99/270/68 104/269/68
o cube
v 0.4375 0.1875 0.4375
v 0.4375 0.1875 0.375
v 0.4375 0.125 0.4375
v 0.4375 0.125 0.375
v -0.4375 0.1875 0.375
v -0.4375 0.1875 0.4375
v -0.4375 0.125 0.375
v -0.4375 0.125 0.4375
vt 0.7368421052631579 0.5
vt 0.7631578947368421 0.5
vt 0.7631578947368421 0.46875
vt 0.7368421052631579 0.46875
vt 0.7368421052631579 0.5
vt 0.7631578947368421 0.5
vt 0.7631578947368421 0.46875
vt 0.7368421052631579 0.46875
vt 0.7368421052631579 0.5
vt 0.7631578947368421 0.5
vt 0.7631578947368421 0.46875
vt 0.7368421052631579 0.46875
vt 0.7368421052631579 0.5
vt 0.7631578947368421 0.5
vt 0.7631578947368421 0.46875
vt 0.7368421052631579 0.46875
vn 1 0 0
vn 0 0 1
vn -1 0 0
vn 0 -1 0
usemtl m_d3850af9-3f5a-2c88-89a7-19a94ca132a2
f 107/276/69 108/275/69 106/274/69 105/273/69
f 112/280/70 107/279/70 105/278/70 110/277/70
f 111/284/71 112/283/71 110/282/71 109/281/71
f 111/288/72 108/287/72 107/286/72 112/285/72
o cube
v -0.1875 0.375 0.5
v -0.1875 0.375 0.4375
v -0.1875 -0.3125 0.5
v -0.1875 -0.3125 0.4375
v -0.3125 0.375 0.4375
v -0.3125 0.375 0.5
v -0.3125 -0.3125 0.4375
v -0.3125 -0.3125 0.5
vt 0.7368421052631579 0.5
vt 0.7894736842105263 0.5
vt 0.7894736842105263 0.15625
vt 0.7368421052631579 0.15625
vt 0.7631578947368421 0.5
vt 0.7894736842105263 0.5
vt 0.7894736842105263 0.15625
vt 0.7631578947368421 0.15625
vt 0.7368421052631579 0.5
vt 0.7894736842105263 0.5
vt 0.7894736842105263 0.15625
vt 0.7368421052631579 0.15625
vt 0.7631578947368421 0.5
vt 0.7894736842105263 0.5
vt 0.7894736842105263 0.15625
vt 0.7631578947368421 0.15625
vt 0.7894736842105263 0.46875
vt 0.7368421052631579 0.46875
vt 0.7368421052631579 0.5
vt 0.7894736842105263 0.5
vt 0.7894736842105263 0.1875
vt 0.7368421052631579 0.1875
vt 0.7368421052631579 0.15625
vt 0.7894736842105263 0.15625
vn 0 0 -1
vn 1 0 0
vn 0 0 1
vn -1 0 0
vn 0 1 0
vn 0 -1 0
usemtl m_d3850af9-3f5a-2c88-89a7-19a94ca132a2
f 116/292/73 119/291/73 117/290/73 114/289/73
f 115/296/74 116/295/74 114/294/74 113/293/74
f 120/300/75 115/299/75 113/298/75 118/297/75
f 119/304/76 120/303/76 118/302/76 117/301/76
f 118/308/77 113/307/77 114/306/77 117/305/77
f 119/312/78 116/311/78 115/310/78 120/309/78
o cube
v 0.4375 0.4375 0.4375
v 0.4375 0.4375 0.375
v 0.4375 0.1875 0.4375
v 0.4375 0.1875 0.375
v -0.4375 0.4375 0.375
v -0.4375 0.4375 0.4375
v -0.4375 0.1875 0.375
v -0.4375 0.1875 0.4375
vt 0.34210526315789475 0.46875
vt 0.3684210526315789 0.46875
vt 0.3684210526315789 0.34375
vt 0.34210526315789475 0.34375
vt 0.3684210526315789 0.46875
vt 0 0.46875
vt 0 0.34375
vt 0.3684210526315789 0.34375
vt 0 0.46875
vt 0.02631578947368421 0.46875
vt 0.02631578947368421 0.34375
vt 0 0.34375
vt 0 0.46875
vt 0.3684210526315789 0.46875
vt 0.3684210526315789 0.4375
vt 0 0.4375
vn 1 0 0
vn 0 0 1
vn -1 0 0
vn 0 1 0
usemtl m_d3850af9-3f5a-2c88-89a7-19a94ca132a2
f 123/316/79 124/315/79 122/314/79 121/313/79
f 128/320/80 123/319/80 121/318/80 126/317/80
f 127/324/81 128/323/81 126/322/81 125/321/81
f 126/328/82 121/327/82 122/326/82 125/325/82
o cube
v 0.4375 -0.125 -0.3125
v 0.4375 -0.125 -0.375
v 0.4375 -0.375 -0.3125
v 0.4375 -0.375 -0.375
v -0.4375 -0.125 -0.375
v -0.4375 -0.125 -0.3125
v -0.4375 -0.375 -0.375
v -0.4375 -0.375 -0.3125
vt 0 0.15625
vt 0.3684210526315789 0.15625
vt 0.3684210526315789 0.03125
vt 0 0.03125
vt 0 0.15625
vt 0.02631578947368421 0.15625
vt 0.02631578947368421 0.03125
vt 0 0.03125
vt 0.34210526315789475 0.15625
vt 0.3684210526315789 0.15625
vt 0.3684210526315789 0.03125
vt 0.34210526315789475 0.03125
vt 0 0.0625
vt 0.3684210526315789 0.0625
vt 0.3684210526315789 0.03125
vt 0 0.03125
vn 0 0 -1
vn 1 0 0
vn -1 0 0
vn 0 -1 0
usemtl m_d3850af9-3f5a-2c88-89a7-19a94ca132a2
f 132/332/83 135/331/83 133/330/83 130/329/83
f 131/336/84 132/335/84 130/334/84 129/333/84
f 135/340/85 136/339/85 134/338/85 133/337/85
f 135/344/86 132/343/86 131/342/86 136/341/86