# Made in Blockbench 4.12.1
mtllib kalimba.mtl

o cube
v 0.5 0.5 0.375
v 0.5 0.5 -0.3125
v 0.5 -0.5 0.375
v 0.5 -0.5 -0.3125
v -0.5 0.5 -0.3125
v -0.5 0.5 0.375
v -0.5 -0.5 -0.3125
v -0.5 -0.5 0.375
vt 0 1
vt 0.42105263157894735 1
vt 0.42105263157894735 0.5
vt 0 0.5
vt 0.42105263157894735 1
vt 0.7105263157894737 1
vt 0.7105263157894737 0.5
vt 0.42105263157894735 0.5
vt 0 1
vt 0.42105263157894735 1
vt 0.42105263157894735 0.5
vt 0 0.5
vt 0.7105263157894737 1
vt 0.42105263157894735 1
vt 0.42105263157894735 0.5
vt 0.7105263157894737 0.5
vt 1 1
vt 1 0.5
vt 0.7105263157894737 0.5
vt 0.7105263157894737 1
vt 0.42105263157894735 0.5
vt 0.42105263157894735 0
vt 0.7105263157894737 0
vt 0.7105263157894737 0.5
vn 0 0 -1
vn 1 0 0
vn 0 0 1
vn -1 0 0
vn 0 1 0
vn 0 -1 0
usemtl m_2b6d63d1-73fc-7d16-bddc-11531df8aba7
f 4/4/1 7/3/1 5/2/1 2/1/1
f 3/8/2 4/7/2 2/6/2 1/5/2
f 8/12/3 3/11/3 1/10/3 6/9/3
f 7/16/4 8/15/4 6/14/4 5/13/4
f 6/20/5 1/19/5 2/18/5 5/17/5
f 7/24/6 4/23/6 3/22/6 8/21/6
o cube
v 0.4375 0.5 -0.3125
v 0.4375 0.5 -0.375
v 0.4375 -0.375 -0.3125
v 0.4375 -0.375 -0.375
v -0.4375 0.5 -0.375
v -0.4375 0.5 -0.3125
v -0.4375 -0.375 -0.375
v -0.4375 -0.375 -0.3125
vt 0 0.5
vt 0.3684210526315789 0.5
vt 0.3684210526315789 0.0625
vt 0 0.0625
vt 0.3684210526315789 0.5
vt 0.39473684210526316 0.5
vt 0.39473684210526316 0.0625
vt 0.3684210526315789 0.0625
vt 0.39473684210526316 0.5
vt 0.42105263157894735 0.5
vt 0.42105263157894735 0.0625
vt 0.39473684210526316 0.0625
vt 0.7368421052631579 0.5
vt 0.7368421052631579 0.0625
vt 0.7105263157894737 0.0625
vt 0.7105263157894737 0.5
vt 0.3684210526315789 0.09375
vt 0 0.09375
vt 0 0.0625
vt 0.3684210526315789 0.0625
vn 0 0 -1
vn 1 0 0
vn -1 0 0
vn 0 1 0
vn 0 -1 0
usemtl m_2b6d63d1-73fc-7d16-bddc-11531df8aba7
f 12/28/7 15/27/7 13/26/7 10/25/7
f 11/32/8 12/31/8 10/30/8 9/29/8
f 15/36/9 16/35/9 14/34/9 13/33/9
f 14/40/10 9/39/10 10/38/10 13/37/10
f 15/44/11 12/43/11 11/42/11 16/41/11
o cube
v 0.4375 0.5 -0.375
v 0.4375 0.5 -0.5
v 0.4375 0.375 -0.375
v 0.4375 0.375 -0.5
v -0.4375 0.5 -0.5
v -0.4375 0.5 -0.375
v -0.4375 0.375 -0.5
v -0.4375 0.375 -0.375
vt 0.3684210526315789 0.0625
vt 0 0.0625
vt 0 0
vt 0.3684210526315789 0
vt 0.3157894736842105 0.0625
vt 0.3684210526315789 0.0625
vt 0.3684210526315789 0
vt 0.3157894736842105 0
vt 0 0.0625
vt 0.05263157894736842 0.0625
vt 0.05263157894736842 0
vt 0 0
vt 0.3684210526315789 0
vt 0 0
vt 0 0.0625
vt 0.3684210526315789 0.0625
vt 0.3684210526315789 0.40625
vt 0 0.40625
vt 0 0.46875
vt 0.3684210526315789 0.46875
vn 0 0 -1
vn 1 0 0
vn -1 0 0
vn 0 1 0
vn 0 -1 0
usemtl m_2b6d63d1-73fc-7d16-bddc-11531df8aba7
f 20/48/12 23/47/12 21/46/12 18/45/12
f 19/52/13 20/51/13 18/50/13 17/49/13
f 23/56/14 24/55/14 22/54/14 21/53/14
f 22/60/15 17/59/15 18/58/15 21/57/15
f 23/64/16 20/63/16 19/62/16 24/61/16
o cube
v 0.125 0.375 -0.375
v 0.125 0.375 -0.4375
v 0.125 -0.3125 -0.375
v 0.125 -0.3125 -0.4375
v 0 0.375 -0.4375
v 0 0.375 -0.375
v 0 -0.3125 -0.4375
v 0 -0.3125 -0.375
vt 0.7368421052631579 0.5
vt 0.7894736842105263 0.5
vt 0.7894736842105263 0.15625
vt 0.7368421052631579 0.15625
vt 0.7368421052631579 0.5
vt 0.7631578947368421 0.5
vt 0.7631578947368421 0.15625
vt 0.7368421052631579 0.15625
vt 0.7631578947368421 0.5
vt 0.7894736842105263 0.5
vt 0.7894736842105263 0.15625
vt 0.7631578947368421 0.15625
vt 0.7894736842105263 0.1875
vt 0.7368421052631579 0.1875
vt 0.7368421052631579 0.15625
vt 0.7894736842105263 0.15625
vn 0 0 -1
vn 1 0 0
vn -1 0 0
vn 0 -1 0
usemtl m_2b6d63d1-73fc-7d16-bddc-11531df8aba7
f 28/68/17 31/67/17 29/66/17 26/65/17
f 27/72/18 28/71/18 26/70/18 25/69/18
f 31/76/19 32/75/19 30/74/19 29/73/19
f 31/80/20 28/79/20 27/78/20 32/77/20
o cube
v -0.0625 0.375 -0.375
v -0.0625 0.375 -0.4375
v -0.0625 -0.1875 -0.375
v -0.0625 -0.1875 -0.4375
v -0.1875 0.375 -0.4375
v -0.1875 0.375 -0.375
v -0.1875 -0.1875 -0.4375
v -0.1875 -0.1875 -0.375
vt 0.7368421052631579 0.40625
vt 0.7894736842105263 0.40625
vt 0.7894736842105263 0.125
vt 0.7368421052631579 0.125
vt 0.7368421052631579 0.40625
vt 0.7631578947368421 0.40625
vt 0.7631578947368421 0.125
vt 0.7368421052631579 0.125
vt 0.7631578947368421 0.40625
vt 0.7894736842105263 0.40625
vt 0.7894736842105263 0.125
vt 0.7631578947368421 0.125
vt 0.7894736842105263 0.15625
vt 0.7368421052631579 0.15625
vt 0.7368421052631579 0.125
vt 0.7894736842105263 0.125
vn 0 0 -1
vn 1 0 0
vn -1 0 0
vn 0 -1 0
usemtl m_2b6d63d1-73fc-7d16-bddc-11531df8aba7
f 36/84/21 39/83/21 37/82/21 34/81/21
f 35/88/22 36/87/22 34/86/22 33/85/22
f 39/92/23 40/91/23 38/90/23 37/89/23
f 39/96/24 36/95/24 35/94/24 40/93/24
o cube
v -0.25 0.375 -0.375
v -0.25 0.375 -0.4375
v -0.25 0.0625 -0.375
v -0.25 0.0625 -0.4375
v -0.375 0.375 -0.4375
v -0.375 0.375 -0.375
v -0.375 0.0625 -0.4375
v -0.375 0.0625 -0.375
vt 0.7368421052631579 0.3125
vt 0.7894736842105263 0.3125
vt 0.7894736842105263 0.15625
vt 0.7368421052631579 0.15625
vt 0.7368421052631579 0.3125
vt 0.7631578947368421 0.3125
vt 0.7631578947368421 0.15625
vt 0.7368421052631579 0.15625
vt 0.7631578947368421 0.3125
vt 0.7894736842105263 0.3125
vt 0.7894736842105263 0.15625
vt 0.7631578947368421 0.15625
vt 0.7894736842105263 0.1875
vt 0.7368421052631579 0.1875
vt 0.7368421052631579 0.15625
vt 0.7894736842105263 0.15625
vn 0 0 -1
vn 1 0 0
vn -1 0 0
vn 0 -1 0
usemtl m_2b6d63d1-73fc-7d16-bddc-11531df8aba7
f 44/100/25 47/99/25 45/98/25 42/97/25
f 43/104/26 44/103/26 42/102/26 41/101/26
f 47/108/27 48/107/27 46/106/27 45/105/27
f 47/112/28 44/111/28 43/110/28 48/109/28
o cube
v 0.375 0.375 0.5
v 0.375 0.375 0.4375
v 0.375 0.0625 0.5
v 0.375 0.0625 0.4375
v 0.25 0.375 0.4375
v 0.25 0.375 0.5
v 0.25 0.0625 0.4375
v 0.25 0.0625 0.5
vt 0.7631578947368421 0.3125
vt 0.7894736842105263 0.3125
vt 0.7894736842105263 0.15625
vt 0.7631578947368421 0.15625
vt 0.7368421052631579 0.34375
vt 0.7894736842105263 0.34375
vt 0.7894736842105263 0.1875
vt 0.7368421052631579 0.1875
vt 0.7368421052631579 0.3125
vt 0.7631578947368421 0.3125
vt 0.7631578947368421 0.15625
vt 0.7368421052631579 0.15625
vt 0.7894736842105263 0.1875
vt 0.7368421052631579 0.1875
vt 0.7368421052631579 0.15625
vt 0.7894736842105263 0.15625
vn 1 0 0
vn 0 0 1
vn -1 0 0
vn 0 -1 0
usemtl m_2b6d63d1-73fc-7d16-bddc-11531df8aba7
f 51/116/29 52/115/29 50/114/29 49/113/29
f 56/120/30 51/119/30 49/118/30 54/117/30
f 55/124/31 56/123/31 54/122/31 53/121/31
f 55/128/32 52/127/32 51/126/32 56/125/32
o cube
v -0.1875 0.375 0.5
v -0.1875 0.375 0.4375
v -0.1875 -0.0625 0.5
v -0.1875 -0.0625 0.4375
v -0.3125 0.375 0.4375
v -0.3125 0.375 0.5
v -0.3125 -0.0625 0.4375
v -0.3125 -0.0625 0.5
vt 0.7631578947368421 0.375
vt 0.7894736842105263 0.375
vt 0.7894736842105263 0.15625
vt 0.7631578947368421 0.15625
vt 0.7368421052631579 0.375
vt 0.7894736842105263 0.375
vt 0.7894736842105263 0.15625
vt 0.7368421052631579 0.15625
vt 0.7368421052631579 0.375
vt 0.7631578947368421 0.375
vt 0.7631578947368421 0.15625
vt 0.7368421052631579 0.15625
vt 0.7894736842105263 0.1875
vt 0.7368421052631579 0.1875
vt 0.7368421052631579 0.15625
vt 0.7894736842105263 0.15625
vn 1 0 0
vn 0 0 1
vn -1 0 0
vn 0 -1 0
usemtl m_2b6d63d1-73fc-7d16-bddc-11531df8aba7
f 59/132/33 60/131/33 58/130/33 57/129/33
f 64/136/34 59/135/34 57/134/34 62/133/34
f 63/140/35 64/139/35 62/138/35 61/137/35
f 63/144/36 60/143/36 59/142/36 64/141/36
o cube
v 0.1875 0.375 0.5
v 0.1875 0.375 0.4375
v 0.1875 -0.1875 0.5
v 0.1875 -0.1875 0.4375
v 0.0625 0.375 0.4375
v 0.0625 0.375 0.5
v 0.0625 -0.1875 0.4375
v 0.0625 -0.1875 0.5
vt 0.7631578947368421 0.4375
vt 0.7894736842105263 0.4375
vt 0.7894736842105263 0.15625
vt 0.7631578947368421 0.15625
vt 0.7368421052631579 0.4375
vt 0.7894736842105263 0.4375
vt 0.7894736842105263 0.15625
vt 0.7368421052631579 0.15625
vt 0.7368421052631579 0.4375
vt 0.7631578947368421 0.4375
vt 0.7631578947368421 0.15625
vt 0.7368421052631579 0.15625
vt 0.7894736842105263 0.1875
vt 0.7368421052631579 0.1875
vt 0.7368421052631579 0.15625
vt 0.7894736842105263 0.15625
vn 1 0 0
vn 0 0 1
vn -1 0 0
vn 0 -1 0
usemtl m_2b6d63d1-73fc-7d16-bddc-11531df8aba7
f 67/148/37 68/147/37 66/146/37 65/145/37
f 72/152/38 67/151/38 65/150/38 70/149/38
f 71/156/39 72/155/39 70/154/39 69/153/39
f 71/160/40 68/159/40 67/158/40 72/157/40
o cube
v 0 0.375 0.5
v 0 0.375 0.4375
v 0 -0.3125 0.5
v 0 -0.3125 0.4375
v -0.125 0.375 0.4375
v -0.125 0.375 0.5
v -0.125 -0.3125 0.4375
v -0.125 -0.3125 0.5
vt 0.7631578947368421 0.5
vt 0.7894736842105263 0.5
vt 0.7894736842105263 0.15625
vt 0.7631578947368421 0.15625
vt 0.7368421052631579 0.5
vt 0.7894736842105263 0.5
vt 0.7894736842105263 0.15625
vt 0.7368421052631579 0.15625
vt 0.7368421052631579 0.5
vt 0.7631578947368421 0.5
vt 0.7631578947368421 0.15625
vt 0.7368421052631579 0.15625
vt 0.7894736842105263 0.1875
vt 0.7368421052631579 0.1875
vt 0.7368421052631579 0.15625
vt 0.7894736842105263 0.15625
vn 1 0 0
vn 0 0 1
vn -1 0 0
vn 0 -1 0
usemtl m_2b6d63d1-73fc-7d16-bddc-11531df8aba7
f 75/164/41 76/163/41 74/162/41 73/161/41
f 80/168/42 75/167/42 73/166/42 78/165/42
f 79/172/43 80/171/43 78/170/43 77/169/43
f 79/176/44 76/175/44 75/174/44 80/173/44
o cube
v 0.4375 0.5 0.5625
v 0.4375 0.5 0.4375
v 0.4375 0.375 0.5625
v 0.4375 0.375 0.4375
v -0.4375 0.5 0.4375
v -0.4375 0.5 0.5625
v -0.4375 0.375 0.4375
v -0.4375 0.375 0.5625
vt 0 0.0625
vt 0.05263157894736842 0.0625
vt 0.05263157894736842 0
vt 0 0
vt 0 0.0625
vt 0.3684210526315789 0.0625
vt 0.3684210526315789 0
vt 0 0
vt 0.3157894736842105 0.0625
vt 0.3684210526315789 0.0625
vt 0.3684210526315789 0
vt 0.3157894736842105 0
vt 0.3684210526315789 0
vt 0 0
vt 0 0.0625
vt 0.3684210526315789 0.0625
vt 0.3684210526315789 0.46875
vt 0 0.46875
vt 0 0.40625
vt 0.3684210526315789 0.40625
vn 1 0 0
vn 0 0 1
vn -1 0 0
vn 0 1 0
vn 0 -1 0
usemtl m_2b6d63d1-73fc-7d16-bddc-11531df8aba7
f 83/180/45 84/179/45 82/178/45 81/177/45
f 88/184/46 83/183/46 81/182/46 86/181/46
f 87/188/47 88/187/47 86/186/47 85/185/47
f 86/192/48 81/191/48 82/190/48 85/189/48
f 87/196/49 84/195/49 83/194/49 88/193/49
o cube
v 0.4375 0.5 0.4375
v 0.4375 0.5 0.375
v 0.4375 -0.375 0.4375
v 0.4375 -0.375 0.375
v -0.4375 0.5 0.375
v -0.4375 0.5 0.4375
v -0.4375 -0.375 0.375
v -0.4375 -0.375 0.4375
vt 0.39473684210526316 0.5
vt 0.42105263157894735 0.5
vt 0.42105263157894735 0.0625
vt 0.39473684210526316 0.0625
vt 0 0.5
vt 0.3684210526315789 0.5
vt 0.3684210526315789 0.0625
vt 0 0.0625
vt 0.3684210526315789 0.5
vt 0.39473684210526316 0.5
vt 0.39473684210526316 0.0625
vt 0.3684210526315789 0.0625
vt 0.7368421052631579 0.5
vt 0.7368421052631579 0.0625
vt 0.7105263157894737 0.0625
vt 0.7105263157894737 0.5
vt 0.3684210526315789 0.09375
vt 0 0.09375
vt 0 0.0625
vt 0.3684210526315789 0.0625
vn 1 0 0
vn 0 0 1
vn -1 0 0
vn 0 1 0
vn 0 -1 0
usemtl m_2b6d63d1-73fc-7d16-bddc-11531df8aba7
f 91/200/50 92/199/50 90/198/50 89/197/50
f 96/204/51 91/203/51 89/202/51 94/201/51
f 95/208/52 96/207/52 94/206/52 93/205/52
f 94/212/53 89/211/53 90/210/53 93/209/53
f 95/216/54 92/215/54 91/214/54 96/213/54
o cube
v 0.3125 0.375 -0.375
v 0.3125 0.375 -0.4375
v 0.3125 -0.0625 -0.375
v 0.3125 -0.0625 -0.4375
v 0.1875 0.375 -0.4375
v 0.1875 0.375 -0.375
v 0.1875 -0.0625 -0.4375
v 0.1875 -0.0625 -0.375
vt 0.7368421052631579 0.375
vt 0.7894736842105263 0.375
vt 0.7894736842105263 0.15625
vt 0.7368421052631579 0.15625
vt 0.7368421052631579 0.375
vt 0.7631578947368421 0.375
vt 0.7631578947368421 0.15625
vt 0.7368421052631579 0.15625
vt 0.7631578947368421 0.375
vt 0.7894736842105263 0.375
vt 0.7894736842105263 0.15625
vt 0.7631578947368421 0.15625
vt 0.7894736842105263 0.1875
vt 0.7368421052631579 0.1875
vt 0.7368421052631579 0.15625
vt 0.7894736842105263 0.15625
vn 0 0 -1
vn 1 0 0
vn -1 0 0
vn 0 -1 0
usemtl m_2b6d63d1-73fc-7d16-bddc-11531df8aba7
f 100/220/55 103/219/55 101/218/55 98/217/55
f 99/224/56 100/223/56 98/222/56 97/221/56
f 103/228/57 104/227/57 102/226/57 101/225/57
f 103/232/58 100/231/58 99/230/58 104/229/58