# Blender v2.76 (sub 0) OBJ File: ''
# www.blender.org
o Plane.002
v -0.694658 -0.500000 -0.719340
v 0.694658 -0.500000 0.719340
v -0.694658 0.500000 -0.719340
v 0.694658 0.500000 0.719340
v -0.500000 0.000000 0.500000
v 0.500000 -0.000000 0.500000
v -0.500000 0.000000 -0.500000
v 0.500000 -0.000000 -0.500000
v -0.719340 -0.500000 0.694658
v 0.719340 -0.500000 -0.694658
v -0.719340 0.500000 0.694658
v 0.719340 0.500000 -0.694658
vt 0.000000 0.000000
vt 0.999900 0.000000
vt 1.000000 0.500000
vt 0.000000 0.500000
vt 0.500000 0.500100
vt 0.500000 0.999900
vt 0.000000 0.999900
vt 0.999900 0.500000
vn -0.719300 -0.000000 0.694700
vn 0.000000 1.000000 0.000000
vn 0.694700 0.000000 0.719300
s off
f 1/1/1 2/2/1 4/3/1 3/4/1
f 5/4/2 6/5/2 8/6/2 7/7/2
f 9/1/3 10/2/3 12/8/3 11/4/3
