<?xml version="1.0" encoding="UTF-8" standalone="no"?>
<!-- Created with Inkscape (http://www.inkscape.org/) -->

<svg
   width="78.472939mm"
   height="77.91909mm"
   viewBox="0 0 78.472939 77.91909"
   version="1.1"
   id="svg5"
   inkscape:version="1.1.2 (0a00cf5339, 2022-02-04)"
   sodipodi:docname="logo.svg"
   xmlns:inkscape="http://www.inkscape.org/namespaces/inkscape"
   xmlns:sodipodi="http://sodipodi.sourceforge.net/DTD/sodipodi-0.dtd"
   xmlns:xlink="http://www.w3.org/1999/xlink"
   xmlns="http://www.w3.org/2000/svg"
   xmlns:svg="http://www.w3.org/2000/svg">
  <sodipodi:namedview
     id="namedview7"
     pagecolor="#ffffff"
     bordercolor="#666666"
     borderopacity="1.0"
     inkscape:pageshadow="2"
     inkscape:pageopacity="0.0"
     inkscape:pagecheckerboard="0"
     inkscape:document-units="mm"
     showgrid="false"
     fit-margin-top="0"
     fit-margin-left="0"
     fit-margin-right="0"
     fit-margin-bottom="0"
     inkscape:zoom="0.60756173"
     inkscape:cx="-263.34773"
     inkscape:cy="422.17932"
     inkscape:window-width="1920"
     inkscape:window-height="1031"
     inkscape:window-x="0"
     inkscape:window-y="25"
     inkscape:window-maximized="1"
     inkscape:current-layer="g69" />
  <defs
     id="defs2">
    <path
       id="SVGID_1_"
       d="m 47.23,5.95 c -1.1,0.82 -2.12,1.78 -3.44,2.18 -2.21,0.67 -4.57,-0.24 -6.87,0.68 -6.5,2.6 -9.56,7.97 -7.13,14.48 0.81,2.18 -0.04,3.22 -0.61,5.37 -1.56,5.9 2.56,13.33 9.06,14.04 3.89,0.42 7.64,-1.41 11.44,-1.01 3.2,0.34 4.85,3.31 7.68,4.42 2.67,1.04 5.67,1.31 8.52,1.23 3.83,-0.12 8.84,-3.09 12.34,-0.34 5.42,4.26 1.89,13.04 8.38,16.9 2.66,1.58 6.27,1.2 8.79,-0.39 4.84,-3.05 3.67,-9.36 5.08,-14.05 0.36,-1.25 0.87,-2.39 1.98,-3.16 1.11,-0.77 2.34,-0.56 3.56,-1.03 1.64,-0.64 3.19,-1.52 4.44,-2.77 1.46,-1.47 0.4,-4.2 2.84,-4.68 0.75,-0.15 1.73,-0.57 2.31,-1.01 3.15,-2.38 3.84,-7.17 1.57,-10.38 -0.84,-1.18 -1.48,-1.51 -1.66,-2.97 -0.17,-1.32 0.13,-2.47 -0.38,-3.82 -1.23,-3.33 -4.27,-5.43 -7.66,-6.34 -0.63,-0.17 -1.3,-0.31 -1.95,-0.43 -1.09,-0.2 -2,-0.24 -2.83,-1.04 -0.43,-0.41 -0.76,-1.01 -1.07,-1.51 C 100.76,8.95 99.61,7.87 98.34,6.89 94.57,3.98 89.55,3.31 84.89,3.95 83.62,4.12 82.51,4.55 81.31,4.99 78.3,6.08 77.13,4.1 74.72,2.83 71.72,1.25 68.13,1.21 64.84,1.69 62.91,1.97 61.48,3.11 59.75,3.84 57.74,4.69 56.61,4.07 54.6,3.93 52.81,3.81 50.9,4.26 49.22,4.83 48.49,5.07 47.84,5.49 47.23,5.95 Z" />
  </defs>
  <g
     inkscape:label="Layer 1"
     inkscape:groupmode="layer"
     id="layer1"
     transform="translate(-48.000326,-36.801964)">
    <g
       id="g148"
       transform="matrix(0.62230722,0,0,0.62230722,47.409134,35.930734)">
      <path
         d="M 20.79,126.61 V 96.9 H 14.41 C 5.98,96.9 0.95,91.86 0.95,83.43 V 14.01 C 0.95,6.94 6.86,1.4 14.41,1.4 h 99.18 c 7.67,0 13.46,5.42 13.46,12.61 v 69.43 c 0,8.18 -5.28,13.47 -13.46,13.47 H 51 Z"
         style="fill:#2f2f2f"
         id="path144" />
      <path
         d="m 14.41,8.48 c -3.17,0 -6.37,1.9 -6.37,5.52 v 69.43 c 0,4.53 1.85,6.37 6.37,6.37 h 13.47 v 19.88 L 48.1,89.81 h 65.49 c 4.29,0 6.37,-2.09 6.37,-6.37 V 14.01 c 0,-3.62 -3.2,-5.52 -6.37,-5.52 H 14.41 Z"
         style="fill:#ffffff"
         id="path146" />
    </g>
    <g
       id="g69"
       transform="matrix(0.26458333,0,0,0.26458333,71.345957,50.069597)">
      <g
         id="g13"
         transform="translate(-5.7594252,-6.6072007)">
        <path
           d="m 40.5,32.5 -5.17,0.25 1.04,76.16 c 0,12.78 18.54,17.66 35.94,17.66 V 32.5 Z"
           style="fill:#e0e0e0"
           id="path9" />
        <path
           d="m 104.12,32.5 5.17,0.25 -1.04,76.16 c 0,12.78 -18.54,17.66 -35.94,17.66 V 32.5 Z"
           style="fill:#e0e0e0"
           id="path11" />
      </g>
      <path
         d="m 66.550578,17.252799 c -9.24,0 -17.89,1.06 -24.350003,2.98 -5.55,1.65 -8.86,3.81 -8.86,5.78 0,1.97 3.31,4.13 8.86,5.78 6.460003,1.92 15.110003,2.98 24.350003,2.98 9.24,0 17.89,-1.06 24.35,-2.98 5.55,-1.65 8.86,-3.81 8.86,-5.78 0,-1.97 -3.31,-4.13 -8.86,-5.78 -6.46,-1.92 -15.11,-2.98 -24.35,-2.98 z"
         style="fill:#fafafa"
         id="path15" />
      <path
         d="m 36.970575,55.032799 0.35,42.369997 c 0.28,2.38 2.23,4.670004 4.89,5.890004 4.760003,2.19 14.080003,4.34 24.400003,4.34 9.85,0 18.23,-1.96 23.1,-4.02 3.08,-1.3 5.57,-3.920004 5.94,-6.180004 l 0.47,-42.399997"
         style="fill:#facc30"
         id="path17" />
      <ellipse
         cx="66.550568"
         cy="55.032799"
         rx="29.58"
         ry="7.3000002"
         style="fill:#e4a324"
         id="ellipse19" />
      <path
         d="m 66.550578,36.612799 c -21.09,0 -36.990003,-4.55 -36.990003,-10.59 0,-6.04 15.900003,-10.59 36.990003,-10.59 21.09,0 36.990002,4.55 36.990002,10.59 -0.01,6.03 -15.910002,10.59 -36.990002,10.59 z m 0,-19.36 c -9.24,0 -17.89,1.06 -24.350003,2.98 -5.55,1.65 -8.86,3.81 -8.86,5.78 0,1.97 3.31,4.13 8.86,5.78 6.460003,1.92 15.110003,2.98 24.350003,2.98 9.24,0 17.89,-1.06 24.35,-2.98 5.55,-1.65 8.86,-3.81 8.86,-5.78 0,-1.97 -3.31,-4.13 -8.86,-5.78 -6.46,-1.92 -15.11,-2.98 -24.35,-2.98 z"
         style="fill:#cecfd0"
         id="path21" />
      <g
         id="g45"
         transform="translate(-5.7594252,-6.6072007)">
        <circle
           cx="85.779999"
           cy="106.82"
           r="1.41"
           style="fill:#e4a324"
           id="circle23" />
        <circle
           cx="88.910004"
           cy="102.94"
           r="0.97000003"
           style="fill:#e4a324"
           id="circle25" />
        <circle
           cx="82.650002"
           cy="101.13"
           r="1.71"
           style="fill:#e4a324"
           id="circle27" />
        <circle
           cx="88.599998"
           cy="99.360001"
           r="1.76"
           style="fill:#e4a324"
           id="circle29" />
        <circle
           cx="82.949997"
           cy="91.830002"
           r="1.41"
           style="fill:#e4a324"
           id="circle31" />
        <circle
           cx="86.68"
           cy="92.510002"
           r="1.26"
           style="fill:#e4a324"
           id="circle33" />
        <circle
           cx="92.010002"
           cy="84.419998"
           r="1.26"
           style="fill:#e4a324"
           id="circle35" />
        <circle
           cx="79.949997"
           cy="76.940002"
           r="1.59"
           style="fill:#e4a324"
           id="circle37" />
        <circle
           cx="87.940002"
           cy="88.470001"
           r="1.9400001"
           style="fill:#e4a324"
           id="circle39" />
        <circle
           cx="82.849998"
           cy="82.5"
           r="1.91"
           style="fill:#e4a324"
           id="circle41" />
        <circle
           cx="89.349998"
           cy="80.18"
           r="1.41"
           style="fill:#e4a324"
           id="circle43" />
      </g>
      <path
         d="m 35.700575,35.102799 -6.16,-4.46 c 0,0 -2.5,2.88 -11.14,4.38 -7.4,1.28 -15.3600002,5.5 -14.6000002,30.08 0.66,21.44 3.55,26.32 15.9700002,29.25 10.82,2.559997 10.8,5.549997 10.8,5.549997 l 5.42,-3.82 V 69.562799 Z m -13.47,48.33 c -6.94,0 -6.94,-7.87 -6.94,-17.58 0,-9.71 0,-17.58 6.94,-17.58 6.94,0 6.94,7.87 6.94,17.58 0,9.71 -0.43,17.58 -6.94,17.58 z"
         style="fill:#e0e0e0"
         id="path47" />
      <path
         d="m 95.250578,105.8928 c -0.59,1.71 -2.67,4.9 -8.57,7.19 -3.63,1.41 -8.97,2.66 -13.37,2.22 -0.94,-0.09 -0.65,-1.01 -0.01,-1.13 3.67,-0.65 7.23,-1.64 11.46,-3.34 5.5,-2.22 9.18,-5.17 9.7,-5.53 0.88,-0.62 0.89,0.3 0.79,0.59 z"
         style="fill:#ffffff"
         id="path49" />
      <path
         d="m 50.410578,44.292799 c -1.55,-1.18 -2.75,-2.22 -4.89,-3.23 -1.02,-0.48 -2.63,-0.56 -4.080003,-0.51 l 0.22,27.68 c 0.03,0.29 0.29,1.06 1.290003,1.48 0.83,0.35 5.58,1.52 9.17,2.14 0.94,0.11 1.51,-0.33 1.53,-0.8 v 0 l 0.11,-25.09 c -1.29,-0.46 -2.58,-1.09 -3.35,-1.67 z"
         style="fill:#ffffff"
         id="path51" />
      <path
         d="m 18.750575,38.522799 c -3.08,0.52 -5.12,1.69 -7.16,4.06 -1.39,1.62 -3.2600002,5.17 -3.1200002,8.43 0.01,0.25 0.14,1.62 0.71,1.56 0.8800002,-0.09 1.1200002,-1.17 1.2000002,-1.63 0.25,-1.51 1.92,-5.4 3.03,-6.67 2.13,-2.44 4.97,-3.03 6.13,-3.43 0.68,-0.24 2.45,-1.1 2.32,-1.72 -0.23,-1.01 -2.47,-0.71 -3.11,-0.6 z"
         style="fill:#ffffff"
         id="path53" />
      <g
         id="g65"
         transform="translate(-5.7594252,-6.6072007)">
        <defs
           id="defs56">
          <path
             id="path134"
             d="m 47.23,5.95 c -1.1,0.82 -2.12,1.78 -3.44,2.18 -2.21,0.67 -4.57,-0.24 -6.87,0.68 -6.5,2.6 -9.56,7.97 -7.13,14.48 0.81,2.18 -0.04,3.22 -0.61,5.37 -1.56,5.9 2.56,13.33 9.06,14.04 3.89,0.42 7.64,-1.41 11.44,-1.01 3.2,0.34 4.85,3.31 7.68,4.42 2.67,1.04 5.67,1.31 8.52,1.23 3.83,-0.12 8.84,-3.09 12.34,-0.34 5.42,4.26 1.89,13.04 8.38,16.9 2.66,1.58 6.27,1.2 8.79,-0.39 4.84,-3.05 3.67,-9.36 5.08,-14.05 0.36,-1.25 0.87,-2.39 1.98,-3.16 1.11,-0.77 2.34,-0.56 3.56,-1.03 1.64,-0.64 3.19,-1.52 4.44,-2.77 1.46,-1.47 0.4,-4.2 2.84,-4.68 0.75,-0.15 1.73,-0.57 2.31,-1.01 3.15,-2.38 3.84,-7.17 1.57,-10.38 -0.84,-1.18 -1.48,-1.51 -1.66,-2.97 -0.17,-1.32 0.13,-2.47 -0.38,-3.82 -1.23,-3.33 -4.27,-5.43 -7.66,-6.34 -0.63,-0.17 -1.3,-0.31 -1.95,-0.43 -1.09,-0.2 -2,-0.24 -2.83,-1.04 -0.43,-0.41 -0.76,-1.01 -1.07,-1.51 C 100.76,8.95 99.61,7.87 98.34,6.89 94.57,3.98 89.55,3.31 84.89,3.95 83.62,4.12 82.51,4.55 81.31,4.99 78.3,6.08 77.13,4.1 74.72,2.83 71.72,1.25 68.13,1.21 64.84,1.69 62.91,1.97 61.48,3.11 59.75,3.84 57.74,4.69 56.61,4.07 54.6,3.93 52.81,3.81 50.9,4.26 49.22,4.83 48.49,5.07 47.84,5.49 47.23,5.95 Z" />
        </defs>
        <use
           style="overflow:visible;fill:#e9e2cf"
           xlink:href="#SVGID_1_"
           id="use58"
           x="0"
           y="0"
           width="100%"
           height="100%" />
        <clipPath
           id="SVGID_2_">
          <use
             style="overflow:visible"
             xlink:href="#SVGID_1_"
             id="use60"
             x="0"
             y="0"
             width="100%"
             height="100%" />
        </clipPath>
        <path
           d="m 117,20.19 c -0.64,2.83 -2.84,5.26 -5.6,6.16 -2.76,0.9 -5.97,0.26 -8.16,-1.65 -0.98,1.34 -3.64,0.04 -4.41,0.56 -0.77,0.53 -2.3,5.48 -5.1,5.72 -1.7,2.05 -4.55,3.08 -7.17,2.59 -2.62,-0.49 -4.57,-5.24 -5.74,-5.02 -1.17,0.22 -1.83,1.92 -3.12,2.01 -0.64,0.05 -1.31,-0.06 -1.91,0.17 -1.23,0.47 -1.6,2.08 -2.68,2.84 -1.03,0.73 -2.45,0.52 -3.65,0.93 -0.77,0.26 -1.43,0.77 -2.12,1.19 -2.75,1.69 -6.27,2.08 -9.32,1.05 -3.06,-1.04 -5.61,-3.48 -6.77,-6.5 -1.78,2.03 -6.38,3.51 -7.79,3.1 -1.41,-0.41 -2.78,2.43 -4.64,2.8 -1.98,0.39 -4.01,0.79 -6,0.44 -1.99,-0.35 -3.95,-1.61 -4.52,-3.54 -0.76,2.6 -1.95,5.08 -3.49,7.31 7.12,3.3 14.24,6.6 21.36,9.9 0.97,0.45 1.97,0.92 2.72,1.67 1.76,1.76 1.87,4.67 3.58,6.47 1.82,1.92 4.8,1.99 7.44,1.93 2.54,-0.06 5.07,-0.12 7.61,-0.18 1.18,-0.03 2.42,-0.04 3.47,0.49 2.91,1.49 2.61,5.98 5.03,8.18 1.86,1.68 4.69,1.5 7.17,1.21 7,-0.82 14,-1.71 20.98,-2.66 0.65,-0.09 1.32,-0.18 1.9,-0.49 0.8,-0.43 1.33,-1.2 1.86,-1.94 4.18,-5.93 9.23,-11.24 14.94,-15.72 1.45,-1.13 2.98,-2.26 3.87,-3.87 0.8,-1.44 1,-3.13 1.18,-4.77 0.2,-1.75 0.4,-3.51 0.6,-5.26 0.08,-0.73 0.16,-1.49 -0.04,-2.2 -0.29,-0.98 -1.09,-1.72 -1.82,-2.44 -1.87,-1.87 -3.45,-4.04 -4.67,-6.39 -0.58,-1.12 -1.09,-2.31 -1.97,-3.22 -0.88,-0.91 -2.24,-1.48 -3.42,-1.04"
           style="fill:#e2d2ba"
           clip-path="url(#SVGID_2_)"
           id="path63" />
      </g>
      <path
         d="m 78.810578,38.682799 c 2.01,1.76 2.31,4.81 2.47,7.51 0.17,2.81 1.03,7.92 2.93,7.6 1.29,-0.41 1.55,-2.1 1.57,-3.45 0.05,-3.34 0.08,-6.81 -1.31,-9.85 -0.61,-1.33 -1.53,-2.59 -2.85,-3.21 -1.2,-0.56 -4.44,-0.7 -2.81,1.4"
         style="fill:#f6eeda"
         id="path67" />
    </g>
  </g>
</svg>
