# Blender 4.2.3 LTS
# www.blender.org
mtllib anvil.mtl
o Cube.001
v 0.437500 -0.500000 -0.375000
v 0.312500 -0.312500 -0.250000
v -0.437500 -0.500000 -0.375000
v -0.312500 -0.312500 -0.250000
v -0.437500 -0.312500 -0.375000
v 0.437500 -0.312500 -0.375000
v -0.187500 -0.125000 -0.125000
v 0.187500 -0.125000 -0.125000
v -0.312500 -0.125000 -0.250000
v 0.312500 -0.125000 -0.250000
v -0.187500 0.187500 -0.125000
v 0.187500 0.187500 -0.125000
v 0.312500 0.187500 -0.250000
v 0.312500 0.500000 -0.125000
v -0.312500 0.187500 -0.250000
v -0.312500 0.500000 -0.125000
v 0.312500 0.500000 -0.250000
v -0.312500 0.500000 -0.250000
v 0.312500 0.312500 -0.125000
v -0.312500 0.312500 -0.250000
v -0.500000 0.312500 -0.250000
v -0.500000 0.500000 -0.250000
v 0.500000 0.500000 -0.125000
v 0.500000 0.312500 -0.125000
v -0.437500 0.500000 -0.125000
v -0.312500 0.437500 -0.125000
v -0.437500 0.437500 -0.125000
v 0.437500 -0.500000 -0.250000
v 0.437500 -0.312500 -0.250000
v -0.437500 -0.312500 -0.250000
v -0.437500 -0.500000 -0.250000
v 0.500000 -0.312500 -0.375000
v 0.500000 -0.500000 -0.375000
v 0.500000 -0.500000 -0.250000
v 0.500000 -0.312500 -0.250000
v -0.500000 -0.312500 -0.250000
v -0.500000 -0.312500 -0.375000
v -0.500000 -0.500000 -0.375000
v -0.500000 -0.500000 -0.250000
v 0.250000 -0.312500 -0.375000
v 0.250000 -0.500000 -0.375000
v -0.250000 -0.312500 -0.375000
v -0.250000 -0.500000 -0.375000
v -0.437500 -0.312500 -0.500000
v -0.437500 -0.500000 -0.500000
v -0.250000 -0.500000 -0.500000
v 0.250000 -0.312500 -0.500000
v 0.437500 -0.312500 -0.500000
v 0.437500 -0.500000 -0.500000
v 0.500000 -0.312500 -0.500000
v 0.500000 -0.500000 -0.500000
v -0.500000 -0.312500 -0.500000
v -0.500000 -0.500000 -0.500000
v 0.250000 -0.500000 -0.500000
v -0.250000 -0.312500 -0.500000
v 0.437500 -0.500000 0.375000
v 0.312500 -0.312500 0.250000
v -0.437500 -0.500000 0.375000
v -0.312500 -0.312500 0.250000
v -0.437500 -0.312500 0.375000
v 0.437500 -0.312500 0.375000
v -0.187500 -0.125000 0.125000
v 0.187500 -0.125000 0.125000
v -0.312500 -0.125000 0.250000
v 0.312500 -0.125000 0.250000
v -0.187500 0.187500 0.125000
v 0.187500 0.187500 0.125000
v 0.312500 0.187500 0.250000
v 0.312500 0.500000 0.125000
v -0.312500 0.187500 0.250000
v -0.312500 0.500000 0.125000
v 0.312500 0.500000 0.250000
v -0.312500 0.500000 0.250000
v 0.312500 0.312500 0.125000
v -0.312500 0.312500 0.250000
v -0.500000 0.312500 0.250000
v -0.500000 0.500000 0.250000
v 0.500000 0.500000 0.125000
v 0.500000 0.312500 0.125000
v -0.437500 0.500000 0.125000
v -0.312500 0.437500 0.125000
v -0.437500 0.437500 0.125000
v 0.437500 -0.500000 0.250000
v 0.437500 -0.312500 0.250000
v -0.437500 -0.312500 0.250000
v -0.437500 -0.500000 0.250000
v 0.500000 -0.312500 0.375000
v 0.500000 -0.500000 0.375000
v 0.500000 -0.500000 0.250000
v 0.500000 -0.312500 0.250000
v -0.500000 -0.312500 0.250000
v -0.500000 -0.312500 0.375000
v -0.500000 -0.500000 0.375000
v -0.500000 -0.500000 0.250000
v 0.250000 -0.312500 0.375000
v 0.250000 -0.500000 0.375000
v -0.250000 -0.312500 0.375000
v -0.250000 -0.500000 0.375000
v -0.437500 -0.312500 0.500000
v -0.437500 -0.500000 0.500000
v -0.250000 -0.500000 0.500000
v 0.250000 -0.312500 0.500000
v 0.437500 -0.312500 0.500000
v 0.437500 -0.500000 0.500000
v 0.500000 -0.312500 0.500000
v 0.500000 -0.500000 0.500000
v -0.500000 -0.312500 0.500000
v -0.500000 -0.500000 0.500000
v 0.250000 -0.500000 0.500000
v -0.250000 -0.312500 0.500000
vn -0.0000 1.0000 -0.0000
vn -0.0000 -1.0000 -0.0000
vn 1.0000 -0.0000 -0.0000
vn -0.0000 -0.0000 -1.0000
vn -1.0000 -0.0000 -0.0000
vn -0.0000 -0.0000 1.0000
vt 0.851064 1.000000
vt 0.680851 1.000000
vt 0.680851 0.937500
vt 0.851064 0.937500
vt 0.765957 0.812500
vt 0.765957 0.718750
vt 0.723404 0.718750
vt 0.723404 0.812500
vt 0.638298 0.187500
vt 0.808511 0.187500
vt 0.808511 0.281250
vt 0.638298 0.281250
vt 0.808511 0.468750
vt 0.595745 0.468750
vt 0.595745 0.562500
vt 0.808511 0.562500
vt 0.872340 0.500000
vt 0.872340 0.437500
vt 0.893617 0.437500
vt 0.893617 0.500000
vt 0.680851 0.562500
vt 0.851064 0.562500
vt 0.851064 0.625000
vt 0.680851 0.625000
vt 0.893617 0.906250
vt 0.893617 1.000000
vt 0.510638 0.562500
vt 0.510638 0.406250
vt 0.595745 0.406250
vt 0.765957 0.375000
vt 0.765957 0.468750
vt 0.595745 0.375000
vt 0.638298 0.343750
vt 0.468085 0.343750
vt 0.510638 0.281250
vt 0.595745 0.281250
vt 0.510638 0.093750
vt 0.468085 0.031250
vt 0.638298 0.031250
vt 0.595745 0.093750
vt 0.382979 0.406250
vt 0.382979 0.562500
vt 0.425532 0.281250
vt 0.425532 0.093750
vt 0.063830 0.843750
vt 0.063830 0.968750
vt 0.021277 0.968750
vt 0.021277 0.843750
vt 0.276596 0.750000
vt 0.276596 0.843750
vt 0.106383 0.843750
vt 0.106383 0.750000
vt 0.340426 0.093750
vt 0.297872 0.031250
vt 0.234043 0.156250
vt 0.234043 0.062500
vt 0.276596 -0.000000
vt 0.276596 0.156250
vt 0.297872 0.343750
vt 0.340425 0.281250
vt 0.234043 0.718750
vt 0.148936 0.718750
vt 0.106383 0.937500
vt 0.276596 0.937500
vt 0.276596 1.000000
vt 0.106383 1.000000
vt 0.042553 0.750000
vt 0.042553 0.656250
vt 0.106383 0.656250
vt 0.085106 0.343750
vt 0.085106 0.250000
vt 0.148936 0.250000
vt 0.148936 0.343750
vt 0.234043 0.343750
vt 0.234043 0.250000
vt 0.297872 0.250000
vt 0.148936 0.156250
vt 0.148936 0.062500
vt 0.234043 0.656250
vt 0.276596 0.656250
vt 0.000000 0.968750
vt 0.000000 0.843750
vt 0.085106 0.968750
vt 0.085106 0.843750
vt 0.063830 0.812500
vt 0.021277 0.812500
vt 0.680851 0.062500
vt 0.680851 0.156250
vt 0.638298 0.156250
vt 0.638298 0.062500
vt 0.723404 0.062500
vt 0.723404 0.156250
vt 0.808511 0.156250
vt 0.808511 0.062500
vt 0.787234 0.062500
vt 0.787234 0.156250
vt 0.765957 0.843750
vt 0.808511 0.843750
vt 0.808511 0.812500
vt 0.765957 0.812500
vt 0.872340 0.375000
vt 0.808511 0.375000
vt 0.808511 0.437500
vt 0.872340 0.437500
vt 0.702128 0.062500
vt 0.702128 0.156250
vt 0.638298 0.156250
vt 0.638298 0.062500
vt 0.723404 0.843750
vt 0.808511 0.375000
vt 0.638298 0.375000
vt 0.893617 0.656250
vt 0.744681 0.062500
vt 0.744681 0.156250
vt 0.893617 0.375000
vt 0.893617 0.437500
vt 0.595745 1.000000
vt 0.638298 0.906250
vt 0.638298 1.000000
vt 0.638298 0.656250
vt 0.638298 0.562500
vt 0.765957 0.718750
vt 0.872340 0.437500
vt 0.893617 0.437500
vt 0.893617 0.500000
vt 0.872340 0.500000
vt 0.893617 0.562500
vt 0.106383 0.156250
vt 0.106383 -0.000000
vt 0.276596 0.343750
vt 0.382979 0.656250
vt 0.340425 0.656250
vt 0.148936 0.656250
vt 0.021277 1.000000
vt 0.063830 1.000000
vt 0.425532 1.000000
vt 0.382979 1.000000
vt 0.382979 0.906250
vt 0.382979 0.562500
vt 0.425532 0.562500
vt 0.000000 0.656250
vt 0.106383 0.343750
vt 0.340425 0.750000
vt 0.000000 0.343750
vt 0.382979 0.343750
s 0
usemtl Material
f 30/1/1 85/2/1 59/3/1 4/4/1
f 1/5/2 41/6/2 54/7/2 49/8/2
f 83/9/3 28/10/3 29/11/3 84/12/3
f 2/13/4 4/14/4 9/15/4 10/16/4
f 6/17/1 29/18/1 35/19/1 32/20/1
f 84/21/1 29/22/1 2/23/1 57/24/1
f 30/1/1 4/4/1 42/25/1 5/26/1
f 12/15/3 67/27/3 63/28/3 8/29/3
f 59/30/5 64/31/5 9/14/5 4/32/5
f 9/33/1 64/34/1 62/35/1 7/36/1
f 63/37/1 65/38/1 10/39/1 8/40/1
f 7/36/1 8/40/1 10/39/1 9/33/1
f 62/29/5 66/15/5 11/27/5 7/28/5
f 8/41/4 7/28/4 11/27/4 12/42/4
f 12/43/2 11/44/2 15/38/2 13/34/2
f 27/45/1 82/46/1 81/47/1 26/48/1
f 22/49/5 21/50/5 76/51/5 77/52/5
f 66/53/2 70/54/2 15/38/2 11/44/2
f 14/55/3 19/56/3 13/57/3 17/58/3
f 13/34/2 68/59/2 67/60/2 12/43/2
f 25/61/1 22/49/1 77/52/1 80/62/1
f 75/63/5 20/64/5 15/65/5 70/66/5
f 77/52/6 76/67/6 75/68/6 73/69/6
f 79/70/6 78/71/6 69/72/6 74/73/6
f 19/59/4 14/74/4 23/75/4 24/76/4
f 24/55/2 79/77/2 74/78/2 19/56/2
f 16/79/1 18/80/1 22/49/1 25/61/1
f 26/48/5 81/47/5 71/81/5 16/82/5
f 80/83/3 82/46/3 27/45/3 25/84/3
f 16/85/6 25/86/6 27/48/6 26/45/6
f 33/87/3 32/88/3 35/89/3 34/90/3
f 31/10/5 86/9/5 85/12/5 30/11/5
f 10/14/3 65/31/3 57/30/3 2/32/3
f 30/19/1 5/20/1 37/17/1 36/18/1
f 32/88/3 33/87/3 51/91/3 50/92/3
f 29/93/6 28/94/6 34/95/6 35/96/6
f 28/97/2 1/98/2 33/99/2 34/100/2
f 39/90/5 36/89/5 37/88/5 38/87/5
f 31/94/6 30/93/6 36/96/6 39/95/6
f 5/101/1 42/102/1 55/103/1 44/104/1
f 3/98/2 31/97/2 39/100/2 38/99/2
f 45/105/4 44/106/4 55/107/4 46/108/4
f 33/8/2 1/109/2 49/97/2 51/100/2
f 43/11/4 42/110/4 40/111/4 41/12/4
f 42/25/1 4/4/1 2/23/1 40/112/1
f 49/105/4 48/106/4 50/92/4 51/91/4
f 44/106/4 45/105/4 53/91/4 52/92/4
f 54/108/4 47/107/4 48/106/4 49/105/4
f 43/6/2 3/5/2 45/8/2 46/7/2
f 41/113/5 40/114/5 47/96/5 54/95/5
f 40/102/1 6/101/1 48/104/1 47/103/1
f 3/109/2 38/8/2 53/100/2 45/97/2
f 42/114/3 43/113/3 46/95/3 55/96/3
f 6/104/1 32/101/1 50/115/1 48/116/1
f 37/104/1 5/101/1 44/115/1 52/116/1
f 38/87/5 37/88/5 52/92/5 53/91/5
f 28/117/2 41/118/2 1/119/2
f 43/120/2 31/15/2 3/121/2
f 56/100/2 104/8/2 109/7/2 96/122/2
f 57/13/6 65/16/6 64/15/6 59/14/6
f 61/123/1 87/124/1 90/125/1 84/126/1
f 95/120/1 61/121/1 84/21/1 57/24/1
f 40/112/1 2/23/1 29/22/1 6/127/1
f 62/35/1 64/34/1 65/38/1 63/37/1
f 63/28/6 67/27/6 66/42/6 62/41/6
f 24/55/3 23/75/3 78/72/3 79/77/3
f 67/60/2 68/59/2 70/54/2 66/53/2
f 69/77/3 72/128/3 68/129/3 74/78/3
f 18/80/4 17/130/4 15/131/4 20/132/4
f 76/51/2 21/50/2 20/64/2 75/63/2
f 71/133/1 80/62/1 77/52/1 73/69/1
f 71/134/4 81/47/4 82/46/4 80/135/4
f 88/87/3 89/90/3 90/89/3 87/88/3
f 85/20/1 91/17/1 92/18/1 60/19/1
f 87/88/3 105/92/3 106/91/3 88/87/3
f 84/93/4 90/96/4 89/95/4 83/94/4
f 83/99/2 89/98/2 88/97/2 56/100/2
f 94/90/5 93/87/5 92/88/5 91/89/5
f 86/94/4 94/95/4 91/96/4 85/93/4
f 60/101/1 99/104/1 110/103/1 97/102/1
f 58/98/2 93/99/2 94/100/2 86/97/2
f 100/105/6 101/108/6 110/107/6 99/106/6
f 88/97/2 106/109/2 104/8/2 56/100/2
f 98/11/6 96/12/6 95/111/6 97/110/6
f 97/118/1 95/120/1 57/24/1 59/3/1
f 104/105/6 106/91/6 105/92/6 103/106/6
f 99/106/6 107/92/6 108/91/6 100/105/6
f 109/108/6 104/105/6 103/106/6 102/107/6
f 98/6/2 101/7/2 100/8/2 58/5/2
f 96/113/5 109/95/5 102/96/5 95/114/5
f 95/103/1 102/102/1 103/101/1 61/104/1
f 58/109/2 100/97/2 108/100/2 93/8/2
f 97/114/3 110/96/3 101/95/3 98/113/3
f 61/104/1 103/101/1 105/115/1 87/116/1
f 92/116/1 107/104/1 99/101/1 60/115/1
f 93/87/5 108/91/5 107/92/5 92/88/5
f 83/136/2 56/137/2 96/138/2
f 98/131/2 58/139/2 86/140/2
f 69/75/1 78/74/1 23/73/1 14/72/1
f 17/130/1 18/80/1 16/79/1 14/74/1
f 73/69/6 75/68/6 70/141/6 72/142/6
f 20/132/4 21/143/4 22/49/4 18/80/4
f 13/57/3 19/56/3 74/78/3 68/129/3
f 85/2/1 60/119/1 97/118/1 59/3/1
f 72/142/6 70/141/6 68/144/6
f 15/131/4 17/130/4 13/145/4
f 14/74/1 16/79/1 71/133/1 69/73/1
f 69/73/1 71/133/1 73/69/1 72/142/1
f 83/136/2 86/140/2 31/15/2 28/117/2
f 28/117/2 31/15/2 43/120/2 41/118/2
f 96/138/2 98/131/2 86/140/2 83/136/2
