# Blender 4.4.0
# www.blender.org
o cube.004
v -0.125000 0.312500 0.062500
v -0.125000 0.312500 -0.062500
v -0.125000 0.125000 0.062500
v -0.125000 0.125000 -0.062500
v -0.375000 0.312500 -0.062500
v -0.375000 0.312500 0.062500
v -0.375000 0.125000 -0.062500
v -0.375000 0.125000 0.062500
v -0.375000 0.375000 0.062500
v -0.375000 0.375000 -0.062500
v -0.375000 -0.312500 0.062500
v -0.375000 -0.312500 -0.062500
v -0.500000 0.375000 -0.062500
v -0.500000 0.375000 0.062500
v -0.500000 -0.312500 -0.062500
v -0.500000 -0.312500 0.062500
v 0.375000 -0.062500 0.062500
v 0.375000 -0.062500 -0.062500
v 0.375000 -0.250000 0.062500
v 0.375000 -0.250000 -0.062500
v 0.125000 -0.062500 -0.062500
v 0.125000 -0.062500 0.062500
v 0.125000 -0.250000 -0.062500
v 0.125000 -0.250000 0.062500
v 0.000000 0.312500 0.062500
v 0.000000 0.312500 -0.062500
v 0.000000 -0.250000 0.062500
v 0.000000 -0.250000 -0.062500
v -0.125000 0.312500 -0.062500
v -0.125000 0.312500 0.062500
v -0.125000 -0.250000 -0.062500
v -0.125000 -0.250000 0.062500
v 0.500000 0.375000 0.062500
v 0.500000 0.375000 -0.062500
v 0.500000 -0.312500 0.062500
v 0.500000 -0.312500 -0.062500
v 0.375000 0.375000 -0.062500
v 0.375000 0.375000 0.062500
v 0.375000 -0.312500 -0.062500
v 0.375000 -0.312500 0.062500
v 0.125000 0.312500 0.062500
v 0.125000 0.312500 -0.062500
v 0.125000 -0.250000 0.062500
v 0.125000 -0.250000 -0.062500
v 0.000000 0.312500 -0.062500
v 0.000000 0.312500 0.062500
v 0.000000 -0.250000 -0.062500
v 0.000000 -0.250000 0.062500
v -0.125000 -0.062500 0.062500
v -0.125000 -0.062500 -0.062500
v -0.125000 -0.250000 0.062500
v -0.125000 -0.250000 -0.062500
v -0.375000 -0.062500 -0.062500
v -0.375000 -0.062500 0.062500
v -0.375000 -0.250000 -0.062500
v -0.375000 -0.250000 0.062500
v 0.375000 0.312500 0.062500
v 0.375000 0.312500 -0.062500
v 0.375000 0.125000 0.062500
v 0.375000 0.125000 -0.062500
v 0.125000 0.312500 -0.062500
v 0.125000 0.312500 0.062500
v 0.125000 0.125000 -0.062500
v 0.125000 0.125000 0.062500
vn -0.0000 -0.0000 -1.0000
vn -0.0000 -0.0000 1.0000
vn -0.0000 1.0000 -0.0000
vn -0.0000 -1.0000 -0.0000
vn 1.0000 -0.0000 -0.0000
vn -1.0000 -0.0000 -0.0000
vt 0.000000 0.812500
vt 0.250000 0.812500
vt 0.250000 1.000000
vt 0.000000 1.000000
vt 0.000000 0.875000
vt 0.250000 0.875000
vt 0.000000 0.312500
vt 0.125000 0.312500
vt 0.125000 1.000000
vt 0.125000 0.875000
vt 0.500000 0.812500
vt 0.500000 1.000000
vt 0.500000 0.875000
vt 0.000000 0.437500
vt 0.125000 0.437500
vt 0.250000 0.312500
vt 0.250000 0.437500
s 1
f 4/1/1 7/2/1 5/3/1 2/4/1
f 8/1/2 3/2/2 1/3/2 6/4/2
f 6/5/3 1/6/3 2/3/3 5/4/3
f 7/5/4 4/6/4 3/3/4 8/4/4
f 12/7/1 15/8/1 13/9/1 10/4/1
f 11/7/5 12/8/5 10/9/5 9/4/5
f 16/7/2 11/8/2 9/9/2 14/4/2
f 15/7/6 16/8/6 14/9/6 13/4/6
f 14/5/3 9/10/3 10/9/3 13/4/3
f 15/5/4 12/10/4 11/9/4 16/4/4
f 20/2/1 23/11/1 21/12/1 18/3/1
f 24/2/2 19/11/2 17/12/2 22/3/2
f 22/6/3 17/13/3 18/12/3 21/3/3
f 23/6/4 20/13/4 19/12/4 24/3/4
f 28/14/1 31/15/1 29/9/1 26/4/1
f 32/14/2 27/15/2 25/9/2 30/4/2
f 31/14/6 32/15/6 30/9/6 29/4/6
f 30/5/3 25/10/3 26/9/3 29/4/3
f 31/5/4 28/10/4 27/9/4 32/4/4
f 36/8/1 39/16/1 37/3/1 34/9/1
f 35/8/5 36/16/5 34/3/5 33/9/5
f 40/8/2 35/16/2 33/3/2 38/9/2
f 39/8/6 40/16/6 38/3/6 37/9/6
f 38/10/3 33/6/3 34/3/3 37/9/3
f 39/10/4 36/6/4 35/3/4 40/9/4
f 44/15/1 47/17/1 45/3/1 42/9/1
f 43/15/5 44/17/5 42/3/5 41/9/5
f 48/15/2 43/17/2 41/3/2 46/9/2
f 47/15/6 48/17/6 46/3/6 45/9/6
f 46/10/3 41/6/3 42/3/3 45/9/3
f 47/10/4 44/6/4 43/3/4 48/9/4
f 52/1/1 55/2/1 53/3/1 50/4/1
f 56/1/2 51/2/2 49/3/2 54/4/2
f 54/5/3 49/6/3 50/3/3 53/4/3
f 55/5/4 52/6/4 51/3/4 56/4/4
f 60/2/1 63/11/1 61/12/1 58/3/1
f 64/2/2 59/11/2 57/12/2 62/3/2
f 62/6/3 57/13/3 58/12/3 61/3/3
f 63/6/4 60/13/4 59/12/4 64/3/4
